<svg width="15" height="15" viewBox="0 0 15 15" fill="none" xmlns="http://www.w3.org/2000/svg">
<path d="M1.53425 4.96199C1.71006 4.78623 1.94847 4.6875 2.19707 4.6875C2.44566 4.6875 2.68407 4.78623 2.85988 4.96199L7.5005 9.60261L12.1411 4.96199C12.3179 4.79121 12.5548 4.69672 12.8006 4.69886C13.0464 4.70099 13.2815 4.79959 13.4553 4.97341C13.6292 5.14723 13.7277 5.38236 13.7299 5.62817C13.732 5.87398 13.6375 6.1108 13.4668 6.28761L8.16332 11.5911C7.98751 11.7668 7.74909 11.8655 7.5005 11.8655C7.25191 11.8655 7.0135 11.7668 6.83769 11.5911L1.53425 6.28761C1.3585 6.1118 1.25977 5.87339 1.25977 5.6248C1.25977 5.37621 1.3585 5.13779 1.53425 4.96199Z" fill="white"/>
</svg>
