<svg width="17" height="17" viewBox="0 0 17 17" fill="none" xmlns="http://www.w3.org/2000/svg">
<path d="M5.62359 1.73882C5.4244 1.93807 5.3125 2.20827 5.3125 2.49001C5.3125 2.77174 5.4244 3.04195 5.62359 3.24119L10.883 8.50057L5.62359 13.7599C5.43004 13.9603 5.32295 14.2287 5.32537 14.5073C5.32779 14.7859 5.43953 15.0524 5.63653 15.2494C5.83352 15.4464 6.10001 15.5581 6.3786 15.5605C6.65718 15.563 6.92557 15.4559 7.12596 15.2623L13.1365 9.25176C13.3357 9.05251 13.4476 8.78231 13.4476 8.50057C13.4476 8.21883 13.3357 7.94863 13.1365 7.74938L7.12596 1.73882C6.92671 1.53963 6.65651 1.42773 6.37477 1.42773C6.09304 1.42773 5.82283 1.53963 5.62359 1.73882Z" fill="white"/>
</svg>
