<svg width="24" height="24" viewBox="0 0 24 24" fill="none" xmlns="http://www.w3.org/2000/svg">
<path d="M16.0613 2.4548C16.3425 2.7361 16.5005 3.11756 16.5005 3.5153C16.5005 3.91305 16.3425 4.29451 16.0613 4.5758L8.6363 12.0008L16.0613 19.4258C16.3345 19.7087 16.4857 20.0876 16.4823 20.4809C16.4789 20.8742 16.3211 21.2504 16.043 21.5285C15.7649 21.8066 15.3887 21.9644 14.9954 21.9678C14.6021 21.9712 14.2232 21.82 13.9403 21.5468L5.4548 13.0613C5.1736 12.78 5.01563 12.3986 5.01562 12.0008C5.01562 11.6031 5.1736 11.2216 5.4548 10.9403L13.9403 2.4548C14.2216 2.1736 14.6031 2.01563 15.0008 2.01562C15.3986 2.01562 15.78 2.1736 16.0613 2.4548Z" fill="white"/>
</svg>
