<svg width="50" height="50" viewBox="0 0 50 50" fill="none" xmlns="http://www.w3.org/2000/svg">
<path d="M18.75 37.4993C17.6042 37.4993 16.6236 37.0917 15.8083 36.2764C14.9931 35.4612 14.5847 34.4799 14.5833 33.3327V8.33268C14.5833 7.18685 14.9917 6.20629 15.8083 5.39102C16.625 4.57574 17.6056 4.1674 18.75 4.16602H37.5C38.6458 4.16602 39.6271 4.57435 40.4438 5.39102C41.2604 6.20768 41.6681 7.18824 41.6667 8.33268V33.3327C41.6667 34.4785 41.259 35.4598 40.4438 36.2764C39.6285 37.0931 38.6472 37.5007 37.5 37.4993H18.75ZM18.75 33.3327H37.5V8.33268H18.75V33.3327ZM10.4167 45.8327C9.27083 45.8327 8.29028 45.425 7.475 44.6098C6.65972 43.7945 6.25139 42.8132 6.25 41.666V12.4993H10.4167V41.666H33.3333V45.8327H10.4167Z" fill="white"/>
</svg>
