<svg width="50" height="50" viewBox="0 0 50 50" fill="none" xmlns="http://www.w3.org/2000/svg">
<g clip-path="url(#clip0_45_398)">
<path d="M35.418 8.33398C36.4692 8.33365 37.4817 8.73066 38.2524 9.44544C39.0232 10.1602 39.4954 11.1399 39.5742 12.1882L39.5846 12.5007V16.6673H41.668C42.7192 16.667 43.7317 17.064 44.5024 17.7788C45.2732 18.4935 45.7454 19.4732 45.8242 20.5215L45.8346 20.834V39.584C45.835 40.6352 45.438 41.6477 44.7232 42.4185C44.0084 43.1893 43.0287 43.6614 41.9805 43.7402L41.668 43.7507H33.3346C32.6592 43.7509 31.9939 43.5867 31.3962 43.2724C30.7984 42.9581 30.286 42.503 29.9034 41.9465L29.7263 41.6673H8.33464C7.28343 41.6677 6.27096 41.2706 5.50016 40.5559C4.72937 39.8411 4.25723 38.8614 4.17839 37.8132L4.16797 37.5007V12.5007C4.16764 11.4495 4.56465 10.437 5.27942 9.66618C5.99419 8.89538 6.9739 8.42324 8.02214 8.3444L8.33464 8.33398H35.418ZM41.668 20.834H33.3346V39.584H41.668V20.834ZM35.418 12.5007H8.33464V37.5007H29.168V20.834C29.168 19.7289 29.607 18.6691 30.3884 17.8877C31.1698 17.1063 32.2296 16.6673 33.3346 16.6673H35.418V12.5007Z" fill="white"/>
</g>
<defs>
<clipPath id="clip0_45_398">
<rect width="50" height="50" fill="white"/>
</clipPath>
</defs>
</svg>
