<svg width="50" height="50" viewBox="0 0 50 50" fill="none" xmlns="http://www.w3.org/2000/svg">
<path d="M43.75 13.4033V50H3.125V0H30.3467L43.75 13.4033ZM31.25 12.5H38.4033L31.25 5.34668V12.5ZM40.625 15.625H28.125V3.125H6.25V46.875H40.625V15.625ZM9.375 21.875H18.75V31.25H9.375V21.875ZM12.5 28.125H15.625V25H12.5V28.125ZM9.375 9.375H18.75V18.75H9.375V9.375ZM12.5 15.625H15.625V12.5H12.5V15.625ZM21.875 25H37.5V28.125H21.875V25ZM9.375 34.375H18.75V43.75H9.375V34.375ZM12.5 40.625H15.625V37.5H12.5V40.625ZM21.875 37.5H37.5V40.625H21.875V37.5Z" fill="white"/>
</svg>
