<svg width="25" height="19" viewBox="0 0 25 19" fill="none" xmlns="http://www.w3.org/2000/svg">
<g clip-path="url(#clip0_45_329)">
<g clip-path="url(#clip1_45_329)">
<path d="M2 4.28377V6.58268H5.283L2 4.28377ZM4.72067 17.0827H9.58333V13.6778L4.72067 17.0827ZM15.4167 13.6783V17.0827H20.2787L15.4167 13.6783ZM2 12.416V14.7149L5.28417 12.416H2ZM20.2799 1.91602H15.4167V5.32093L20.2799 1.91602ZM23 14.7155V12.416H19.7153L23 14.7155ZM23 6.58268V4.28377L19.7164 6.58268H23ZM9.58333 1.91602H4.72067L9.58333 5.32093V1.91602Z" fill="#00247D"/>
<path d="M16.6633 12.4173L22.3286 16.3845C22.6053 16.0995 22.8041 15.7482 22.9061 15.3643L18.6973 12.4173H16.6633ZM9.58159 12.4173H8.33268L2.66793 16.384C2.97184 16.6931 3.36151 16.9142 3.79843 17.0169L9.58159 12.9674V12.4173ZM15.4149 6.58396H16.6638L22.3286 2.61729C22.0195 2.30362 21.6276 2.08414 21.1987 1.98438L15.4149 6.03387V6.58396ZM8.33268 6.58396L2.66793 2.61729C2.3914 2.90253 2.1924 3.25373 2.08984 3.63754L6.29859 6.58396H8.33268Z" fill="#CF1B2B"/>
<path d="M23 11.2493H14.25V17.0827H15.4167V13.6783L20.2787 17.0827H20.6667C20.9766 17.0827 21.2834 17.0209 21.569 16.9008C21.8547 16.7807 22.1136 16.6047 22.3303 16.3833L16.665 12.416H18.6991L22.9078 15.363C22.9621 15.1664 23 14.9628 23 14.7493V14.7155L19.7153 12.416H23V11.2493ZM2 11.2493V12.416H5.28417L2 14.7149V14.7493C2 15.3858 2.25608 15.9615 2.66967 16.3827L8.33442 12.416H9.58333V12.9661L3.80017 17.015C3.97167 17.0559 4.149 17.0827 4.33333 17.0827H4.72067L9.58333 13.6778V17.0827H10.75V11.2493H2ZM23 4.24935C23.0004 3.63801 22.7597 3.05116 22.3303 2.61602L16.6656 6.58268H15.4167V6.0326L21.2004 1.9831C21.0257 1.94024 20.8466 1.91773 20.6667 1.91602H20.2799L15.4167 5.32093V1.91602H14.25V7.74935H23V6.58268H19.7164L23 4.28377V4.24935ZM9.58333 1.91602V5.32093L4.72067 1.91602H4.33333C4.02336 1.91588 3.7165 1.97774 3.43079 2.09795C3.14508 2.21817 2.8863 2.39431 2.66967 2.61602L8.33442 6.58268H6.30033L2.09158 3.63627C2.03371 3.8356 2.0029 4.04181 2 4.24935V4.28377L5.283 6.58268H2V7.74935H10.75V1.91602H9.58333Z" fill="#EEEEEE"/>
<path d="M14.25 7.74935V1.91602H10.75V7.74935H2V11.2493H10.75V17.0827H14.25V11.2493H23V7.74935H14.25Z" fill="#CF1B2B"/>
</g>
</g>
<defs>
<clipPath id="clip0_45_329">
<rect width="25" height="19" rx="5" fill="white"/>
</clipPath>
<clipPath id="clip1_45_329">
<rect width="21" height="21" fill="white" transform="translate(2 -1)"/>
</clipPath>
</defs>
</svg>
