<svg width="25" height="25" viewBox="0 0 25 25" fill="none" xmlns="http://www.w3.org/2000/svg">
<path d="M22.7128 10.4605H21.8737V10.4173H12.4987V14.584H18.3857C17.5268 17.0095 15.219 18.7507 12.4987 18.7507C9.04714 18.7507 6.2487 15.9522 6.2487 12.5007C6.2487 9.04909 9.04714 6.25065 12.4987 6.25065C14.0919 6.25065 15.5414 6.85169 16.6451 7.83346L19.5914 4.88711C17.731 3.15326 15.2424 2.08398 12.4987 2.08398C6.74609 2.08398 2.08203 6.74805 2.08203 12.5007C2.08203 18.2533 6.74609 22.9173 12.4987 22.9173C18.2513 22.9173 22.9154 18.2533 22.9154 12.5007C22.9154 11.8022 22.8435 11.1204 22.7128 10.4605Z" fill="#FFC107"/>
<path d="M3.28516 7.65221L6.70755 10.1621C7.63359 7.8694 9.8763 6.25065 12.5008 6.25065C14.094 6.25065 15.5435 6.85169 16.6471 7.83346L19.5935 4.88711C17.7331 3.15326 15.2445 2.08398 12.5008 2.08398C8.49974 2.08398 5.02995 4.34284 3.28516 7.65221Z" fill="#FF3D00"/>
<path d="M12.5 22.9165C15.1906 22.9165 17.6354 21.8868 19.4839 20.2124L16.2599 17.4842C15.1789 18.3063 13.8581 18.7509 12.5 18.7499C9.79062 18.7499 7.4901 17.0223 6.62344 14.6113L3.22656 17.2285C4.95052 20.602 8.45156 22.9165 12.5 22.9165Z" fill="#4CAF50"/>
<path d="M22.7141 10.4592H21.875V10.416H12.5V14.5827H18.387C17.9761 15.7371 17.2361 16.7458 16.2583 17.4842L16.2599 17.4832L19.4839 20.2113C19.2557 20.4186 22.9167 17.7077 22.9167 12.4993C22.9167 11.8009 22.8448 11.1191 22.7141 10.4592Z" fill="#1976D2"/>
</svg>
