<svg width="51" height="51" viewBox="0 0 51 51" fill="none" xmlns="http://www.w3.org/2000/svg">
<path d="M31.3438 34.408H33.2244V31.2205H34.6545C35.2835 31.2205 35.8218 30.9967 36.2695 30.549C36.7172 30.1013 36.941 29.563 36.941 28.934V22.0681C36.941 21.4391 36.7172 20.9001 36.2695 20.451C35.8218 20.0033 35.2835 19.7795 34.6545 19.7795H29.9136C29.2846 19.7795 28.7463 20.0033 28.2986 20.451C27.8495 20.8987 27.625 21.437 27.625 22.066V28.934C27.625 29.563 27.8488 30.1013 28.2965 30.549C28.7456 30.9967 29.2846 31.2205 29.9136 31.2205H31.3438V34.408ZM14.0569 31.2205H15.9375V26.9705H21.4965V31.2205H23.375V19.7795H21.4944V25.092H15.9375V19.7795H14.0569V31.2205ZM30.158 29.342C29.9951 29.342 29.8456 29.274 29.7096 29.138C29.5736 29.002 29.5056 28.8518 29.5056 28.6875V22.3125C29.5056 22.1496 29.5736 21.9994 29.7096 21.862C29.8456 21.7246 29.9951 21.6566 30.158 21.658H34.408C34.5723 21.658 34.7225 21.726 34.8585 21.862C34.9945 21.9994 35.0625 22.1496 35.0625 22.3125V28.6875C35.0625 28.8518 34.9945 29.002 34.8585 29.138C34.7225 29.274 34.5723 29.342 34.408 29.342H30.158ZM9.80688 40.375C8.82938 40.375 8.01267 40.0478 7.35675 39.3932C6.70084 38.7388 6.37359 37.9213 6.375 36.941V14.059C6.375 13.0801 6.70296 12.2634 7.35888 11.6089C8.0148 10.9544 8.8308 10.6264 9.80688 10.625H41.1931C42.1706 10.625 42.9866 10.953 43.6411 11.6089C44.2956 12.2648 44.6236 13.0815 44.625 14.059V36.9431C44.625 37.9206 44.297 38.7373 43.6411 39.3932C42.9852 40.0492 42.1692 40.3764 41.1931 40.375H9.80688ZM9.80688 38.25H41.1931C41.519 38.25 41.8186 38.114 42.092 37.842C42.3654 37.57 42.5014 37.2697 42.5 36.941V14.059C42.5 13.7318 42.364 13.4314 42.092 13.158C41.82 12.8846 41.5204 12.7486 41.1931 12.75H9.80688C9.48105 12.75 9.18142 12.886 8.908 13.158C8.63459 13.43 8.49859 13.7303 8.5 14.059V36.9431C8.5 37.269 8.636 37.5686 8.908 37.842C9.18 38.1154 9.47963 38.2514 9.80688 38.25Z" fill="white"/>
</svg>
