<svg width="50" height="50" viewBox="0 0 50 50" fill="none" xmlns="http://www.w3.org/2000/svg">
<rect x="0.5" y="0.5" width="49" height="49" rx="24.5" stroke="#00FF1E"/>
<path d="M25.5 24.625C24.316 24.625 23.1805 24.1641 22.3433 23.3436C21.5061 22.5231 21.0357 21.4103 21.0357 20.25C21.0357 19.0897 21.5061 17.9769 22.3433 17.1564C23.1805 16.3359 24.316 15.875 25.5 15.875C26.684 15.875 27.8195 16.3359 28.6567 17.1564C29.4939 17.9769 29.9643 19.0897 29.9643 20.25C29.9643 20.8245 29.8488 21.3934 29.6245 21.9242C29.4001 22.455 29.0713 22.9373 28.6567 23.3436C28.2422 23.7498 27.75 24.0721 27.2084 24.292C26.6668 24.5118 26.0863 24.625 25.5 24.625ZM25.5 8C22.1848 8 19.0054 9.29062 16.6612 11.5879C14.317 13.8853 13 17.0011 13 20.25C13 29.4375 25.5 43 25.5 43C25.5 43 38 29.4375 38 20.25C38 17.0011 36.683 13.8853 34.3388 11.5879C31.9946 9.29062 28.8152 8 25.5 8Z" fill="#00FF1E"/>
</svg>
