<svg width="100" height="85" viewBox="0 0 100 85" fill="none" xmlns="http://www.w3.org/2000/svg">
<path d="M48.8477 9.55412C46.0352 9.95255 43.5938 11.8368 42.9102 14.1444L42.754 14.684L33.5059 14.7089C24.3556 14.7338 24.2579 14.7421 23.5157 14.9164C21.338 15.4394 19.5606 16.5434 18.3204 18.1371C17.7052 18.9174 17.3243 19.6977 17.129 20.561C16.9141 21.5155 16.9239 63.0526 17.1388 64.1068C17.7247 66.9789 20.1466 69.3612 23.4473 70.3075C24.922 70.7392 23.9845 70.7226 49.8048 70.7226C65.42 70.7226 74.1602 70.6894 74.668 70.6396C76.2013 70.4735 77.5294 70.0502 78.8184 69.3031C80.9083 68.1078 82.3829 66.0492 82.7149 63.891C82.7833 63.4179 82.8126 56.7192 82.7931 41.8359C82.754 18.4027 82.8126 20.3783 82.1973 19.1166C81.2403 17.1244 79.0723 15.5639 76.377 14.9164C75.6446 14.7421 75.4786 14.7338 66.4161 14.6923L57.2071 14.6508L57.0216 14.0448C56.797 13.2812 56.5626 12.8412 56.0645 12.2187C54.4825 10.2348 51.5919 9.16398 48.8477 9.55412ZM51.9825 12.0527C53.1641 12.5341 54.0431 13.3144 54.4923 14.269C54.7266 14.7919 54.8731 15.9374 54.7755 16.5517C54.6876 17.1078 54.3165 17.9462 54.1895 17.8798C54.1407 17.8549 54.1309 17.8881 54.1602 17.9545C54.2188 18.1039 53.5841 18.7597 53.0665 19.0751C52.295 19.5483 51.1915 19.9218 50.5567 19.9218C50.2833 19.9218 50.0391 19.6313 50.2442 19.5566C50.4591 19.4902 50.42 19.2577 50.1954 19.2577C50.0684 19.2577 50.0001 19.3158 50.0001 19.4154C50.0001 19.4985 49.9122 19.5898 49.8048 19.6147C49.6973 19.6396 49.6095 19.7143 49.6095 19.789C49.6095 20.0048 49.0723 19.9633 48.1251 19.6562C47.8712 19.5732 47.8321 19.4237 48.0567 19.4237C48.1153 19.4237 48.1251 19.4569 48.0958 19.5068C48.0567 19.5566 48.1056 19.5649 48.2032 19.5317C48.3497 19.4902 48.3497 19.4735 48.1837 19.3988C47.9298 19.2743 47.4415 19.2411 47.5196 19.349C47.5489 19.3988 47.422 19.349 47.2266 19.2411C46.8848 19.0585 46.7481 18.8925 47.002 18.9755C47.0704 18.9921 47.2559 18.9174 47.422 18.7929C47.6368 18.6269 47.6563 18.602 47.4903 18.6684C47.3243 18.7431 47.2071 18.7431 47.0509 18.6767C46.8458 18.5937 46.8458 18.5937 47.002 18.7016C47.2266 18.8593 47.2169 18.9008 46.9239 18.9008C46.6407 18.9008 46.0743 18.411 46.1524 18.2284C46.1817 18.1703 46.1622 18.0873 46.1036 18.0541C46.0352 18.0292 46.0255 18.0541 46.0548 18.1288C46.0841 18.2035 46.0841 18.2616 46.0548 18.2616C45.9669 18.2616 45.4395 17.3319 45.3223 16.9501C45.0489 16.0868 45.3126 14.4267 45.8399 13.663C46.3868 12.8744 47.3243 12.2353 48.4376 11.8949C48.9845 11.7289 49.2188 11.704 50.1466 11.7206C51.1524 11.7455 51.2696 11.7621 51.9825 12.0527ZM42.9688 17.3236C43.0372 17.498 43.1934 17.8549 43.3204 18.1122C43.5938 18.6767 43.5938 18.6767 43.3985 18.6767C43.1153 18.6767 41.8067 19.1 40.752 19.5317L39.6973 19.9633L32.9102 19.9716C29.1798 19.9799 25.8888 20.0131 25.5958 20.038C24.1993 20.1791 22.754 21.1088 22.2364 22.2045C22.1485 22.3871 22.0802 22.4784 22.0704 22.412C22.0704 22.3041 22.0606 22.3041 21.9727 22.412C21.8458 22.578 21.8458 22.686 21.9825 22.6195C22.0313 22.5863 22.002 22.7026 21.9044 22.8852C21.7384 23.184 21.7286 23.7318 21.6993 32.1405C21.6798 38.225 21.6407 41.0888 21.5723 41.0888C21.5138 41.0888 21.504 41.1303 21.5528 41.1884C21.5919 41.2465 21.6309 45.2143 21.6407 50.0121C21.6602 56.3207 21.6895 58.8774 21.7774 59.2675C21.963 60.1391 22.2462 60.7616 22.7345 61.3842C23.2813 62.0732 23.9161 62.5048 24.795 62.7704L25.4395 62.9613L49.463 62.9862C65.6739 63.0028 73.7403 62.9779 74.2677 62.9198C76.3184 62.6957 77.6075 61.5087 78.1153 59.3754C78.3204 58.5453 78.3204 58.371 78.3204 41.0639C78.3204 31.3935 78.2813 23.5658 78.2325 23.5409C78.1934 23.516 78.1251 23.3251 78.0958 23.1176C78.0079 22.6112 77.461 21.7065 76.9141 21.2001C76.67 20.9677 76.4942 20.7519 76.5235 20.727C76.5528 20.7021 76.5235 20.6606 76.4552 20.6191C76.377 20.5859 76.3575 20.5942 76.4063 20.6523C76.5138 20.8017 76.3868 20.7685 76.0841 20.5859C75.9376 20.5028 75.4884 20.3368 75.088 20.2206L74.3653 20.0131L67.2852 19.9882C60.9473 19.9633 60.1759 19.9384 59.9122 19.8222C59.17 19.4735 57.1681 18.7514 56.8165 18.7099C56.5138 18.6684 56.4454 18.6269 56.4845 18.519C56.5138 18.4443 56.6602 18.079 56.8067 17.7055L57.0802 17.0248L66.1134 17.0165C76.1134 17.0165 75.6251 16.9916 77.0411 17.5561C78.3399 18.079 79.5899 19.3407 80.0489 20.6025C80.1954 21.0092 80.2149 22.7192 80.1954 41.4623C80.1759 59.1513 80.1466 61.9237 80.0294 62.2309C79.9513 62.4301 79.8829 62.704 79.8829 62.8368C79.8829 62.9696 79.8341 63.1025 79.7852 63.1274C79.7266 63.1523 79.6876 63.31 79.6876 63.476C79.6876 63.7167 79.6583 63.7582 79.5216 63.7167C79.4239 63.6835 79.3848 63.6835 79.4239 63.7167C79.463 63.7499 79.4044 63.8246 79.297 63.891C79.1895 63.9574 79.1016 64.0487 79.1016 64.0902C79.1016 64.1318 78.9161 64.3808 78.6915 64.6381C78.4571 64.912 78.3595 65.0863 78.4473 65.0531C78.545 65.0199 78.711 65.0365 78.8282 65.078L79.0528 65.1527L78.8087 65.1693C78.672 65.1776 78.4669 65.1943 78.3595 65.2026C78.2423 65.2109 77.8712 65.4184 77.5196 65.6674C77.1778 65.9164 76.7579 66.1986 76.6016 66.2983C76.4454 66.3979 76.377 66.4809 76.4454 66.4809C76.504 66.4892 76.5626 66.456 76.5626 66.4062C76.5626 66.3647 76.6309 66.3564 76.7286 66.3813C76.8165 66.4145 76.8653 66.3979 76.8263 66.3564C76.797 66.3066 76.8946 66.2069 77.0509 66.1322C77.3243 65.9911 77.3341 65.9911 77.3145 66.1488C77.3048 66.2485 77.2559 66.29 77.168 66.2568C77.0606 66.2235 77.0411 66.2568 77.0899 66.3896C77.129 66.4809 77.1095 66.5805 77.0606 66.6137C76.9923 66.6469 76.9923 66.6967 77.0704 66.7714C77.1583 66.8461 77.2462 66.8544 77.4122 66.788C77.5294 66.7382 77.6368 66.6718 77.6368 66.6303C77.6368 66.5971 77.7345 66.5722 77.8516 66.5722C78.0177 66.5722 78.0372 66.5473 77.9591 66.4809C77.8712 66.4062 77.7833 66.4145 77.5977 66.5224C77.4513 66.5971 77.3438 66.622 77.3438 66.5805C77.3438 66.539 77.3927 66.4726 77.4415 66.4477C77.5001 66.4228 77.5391 66.3398 77.5391 66.2734C77.5391 66.1239 77.7735 65.9081 77.92 65.9081C77.9786 65.9081 78.0274 66.016 78.0274 66.1488C78.0274 66.2817 78.1055 66.4394 78.2032 66.4975C78.3497 66.6054 78.3595 66.5971 78.2325 66.4726C78.1446 66.373 78.1348 66.3232 78.213 66.3232C78.2716 66.3232 78.3106 66.1903 78.3106 66.0077C78.2911 65.7172 78.2911 65.7172 78.2423 65.9496L78.1934 66.1986L78.1251 65.9496C78.0763 65.7504 78.0274 65.7089 77.8321 65.7255L77.5977 65.7421L77.8321 65.5761C78.0958 65.3769 78.1348 65.3686 78.0665 65.5263C78.0274 65.6176 78.1251 65.6425 78.545 65.6342C79.043 65.6176 79.0821 65.6259 79.0821 65.8168C79.0723 66.1239 77.0704 67.7426 76.6895 67.7343C76.6505 67.7343 76.6798 67.6928 76.7579 67.6513C76.8555 67.6015 76.8653 67.5683 76.7872 67.5683C76.7188 67.5683 76.6602 67.5268 76.6602 67.477C76.6602 67.4272 76.7286 67.4106 76.8165 67.4355C76.9141 67.4687 76.9434 67.4521 76.8946 67.3857C76.8458 67.3193 76.8751 67.311 76.9923 67.3442C77.0997 67.3774 77.2559 67.3442 77.4024 67.2445C77.5977 67.1117 77.6075 67.0785 77.4805 67.037C77.4024 67.0121 77.3536 67.0204 77.3829 67.0619C77.4122 67.1034 77.3731 67.1781 77.2852 67.2362C77.1778 67.3193 77.1095 67.3193 77.0313 67.2528C76.8848 67.1283 76.7286 67.1283 76.8165 67.2528C76.8653 67.311 76.836 67.3276 76.7384 67.2943C76.6212 67.2611 76.5919 67.2943 76.6016 67.4438C76.6212 67.5517 76.6016 67.6679 76.5723 67.7094C76.4552 67.8588 75.5079 68.1742 74.7462 68.3153C74.3751 68.3818 67.8028 68.415 49.8927 68.415C22.8419 68.4233 25.0098 68.4648 23.4962 67.8671C22.7052 67.56 22.5587 67.4438 22.8614 67.3608C22.9688 67.3276 23.0372 67.286 23.0177 67.2611C22.9884 67.2445 22.8712 67.2694 22.754 67.3193C22.5684 67.4023 22.4903 67.3857 22.2266 67.2279C21.2208 66.5888 20.3516 65.518 20.0391 64.5219C19.7852 63.7084 19.6485 62.621 19.8145 62.704C19.8927 62.7455 19.9122 62.6459 19.8634 62.3222C19.795 61.766 19.6583 42.9814 19.6485 30.7543C19.629 20.5194 19.6095 20.9096 20.2833 19.7558C20.7911 18.8925 21.8556 17.9794 22.8516 17.5727C24.2286 16.9999 23.711 17.0248 33.7598 17.0248L42.8516 17.0165L42.9688 17.3236ZM47.9493 19.3739C47.9493 19.3905 47.8809 19.432 47.7931 19.4569C47.7149 19.4818 47.6759 19.4735 47.7052 19.4237C47.7638 19.3407 47.9493 19.3075 47.9493 19.3739ZM46.6602 21.308C46.6407 21.9306 46.6407 21.9389 46.6114 21.4491C46.5723 20.976 46.5528 20.9428 46.377 20.976C46.1817 21.0175 46.172 21.0756 46.211 21.9223L46.2403 22.8271L45.9473 22.9101C45.7911 22.9516 45.3712 23.0429 45.0196 23.1176C43.379 23.4745 40.7813 24.4457 39.2384 25.2841C34.5118 27.8573 30.8595 32.2983 29.7755 36.8139C29.1407 39.4535 29.1407 42.5414 29.7852 44.8241C31.1231 49.5473 34.6095 53.6562 39.297 56.0302C40.4493 56.6112 40.5274 56.6693 40.4688 56.8603C40.3321 57.2753 40.3712 57.3832 40.6739 57.4662C40.8399 57.5077 41.045 57.599 41.1427 57.6737C41.2306 57.7401 41.3087 57.7651 41.3087 57.7318C41.3087 57.6903 41.3575 57.6986 41.4259 57.7568C41.4942 57.8149 41.6212 57.8564 41.7188 57.8564C41.8165 57.8564 41.8946 57.8896 41.8946 57.9394C41.8946 57.9809 41.9434 58.0224 42.002 58.0224C42.1973 58.0224 41.9727 57.8481 41.6016 57.7235C41.2403 57.599 41.2306 57.5824 41.3282 57.35C41.377 57.2172 41.4747 57.1093 41.5333 57.1093C41.5919 57.1093 42.0997 57.267 42.6661 57.4496C43.9649 57.8813 45.9376 58.3129 47.2657 58.4457C47.8321 58.5038 48.3204 58.5868 48.3497 58.6283C48.3888 58.6698 48.379 58.811 48.3399 58.9438C48.2911 59.0683 48.2911 59.1928 48.3204 59.2177C48.4278 59.3173 48.6134 59.8485 48.5157 59.7987C48.4571 59.7655 48.379 59.7987 48.3302 59.8568C48.2911 59.9233 48.1934 59.9731 48.1348 59.9731C48.0665 59.9731 48.0079 60.0395 47.9884 60.1142C47.9786 60.2138 48.0274 60.2636 48.1544 60.2636C48.252 60.2636 48.3399 60.3217 48.3399 60.3881C48.3399 60.4545 48.252 60.5126 48.1348 60.5126C48.0274 60.5126 47.9688 60.4794 47.9981 60.4296C48.0274 60.3798 47.9884 60.3715 47.9005 60.3964C47.5977 60.496 47.9005 60.579 48.7013 60.6122C49.4239 60.6454 49.4923 60.6371 49.463 60.496C49.4337 60.3715 49.4825 60.3466 49.7364 60.3632C50.1954 60.3881 50.9766 60.2636 50.9766 60.1723C50.9766 60.1225 51.0157 60.1059 51.0645 60.1308C51.1036 60.1557 51.2598 59.9731 51.4063 59.724C51.6016 59.4003 51.67 59.1845 51.6407 58.9189C51.6114 58.5785 51.6212 58.5619 51.9044 58.537C53.5255 58.4208 56.2501 57.8481 57.7149 57.3251C58.1641 57.1591 58.5548 57.0263 58.5645 57.0263C58.5743 57.0263 58.6524 57.1342 58.7403 57.267C58.8673 57.4911 58.9161 57.5077 59.1895 57.4413C59.3555 57.3998 59.5509 57.3251 59.629 57.2753C59.6973 57.2172 59.8048 57.2006 59.8634 57.2338C60.0098 57.3085 59.9805 57.184 59.8243 57.0761C59.7462 57.0263 59.6583 56.9018 59.629 56.8022C59.5704 56.6527 59.6778 56.5697 60.4493 56.1962C65.0098 53.9799 68.5059 50.1449 70.0001 45.7372C71.4454 41.4789 70.8595 36.4403 68.4473 32.3896C66.6505 29.3681 63.8868 26.8612 60.4493 25.1181C58.0177 23.8813 56.4161 23.3417 53.5938 22.7939L53.3204 22.7441V21.7065V20.6689H53.6622C54.5802 20.6689 57.3243 21.3661 59.17 22.0717C62.7345 23.4247 66.3673 25.9399 68.5938 28.5878C69.0821 29.1689 69.1309 29.2602 69.004 29.3764C68.4278 29.9242 68.9454 30.6879 69.8341 30.6132C70.1466 30.5883 70.1661 30.6049 70.6251 31.3354C71.504 32.7465 72.3145 34.7387 72.7442 36.5649C73.1251 38.1918 73.1934 38.8476 73.1837 41.0058C73.1837 42.807 73.1544 43.2802 72.9688 44.2016C72.5294 46.3847 71.8165 48.2441 70.6837 50.1947L70.0001 51.3818H69.629C68.9161 51.3818 68.4669 51.9711 68.7501 52.5439C68.8673 52.7763 68.8477 52.8178 68.4473 53.266C67.7833 53.9965 65.7716 55.7397 64.8927 56.3373C63.7013 57.1425 62.7052 57.7069 62.5782 57.6405C62.5098 57.6073 62.5001 57.6156 62.5391 57.6737C62.6173 57.79 62.2462 57.9726 62.0899 57.8896C62.0313 57.8564 62.0118 57.8647 62.0411 57.9145C62.129 58.0307 60.3712 58.8276 59.0333 59.2924C56.9825 59.998 54.5313 60.579 54.0626 60.4711C53.9259 60.4379 53.8966 60.4462 53.9845 60.496C54.1798 60.6039 52.6368 60.7699 51.2501 60.7948C50.8399 60.7948 50.4688 60.828 50.4298 60.8612C50.3321 60.9526 50.0001 60.9443 50.0001 60.8529C50.0001 60.8114 49.5313 60.7782 48.9552 60.7782C48.3692 60.7782 47.7442 60.7616 47.5587 60.745C47.3731 60.7284 47.0411 60.7035 46.8263 60.6952C46.5723 60.6786 46.4845 60.6537 46.5626 60.6039C46.6602 60.5541 46.6505 60.5209 46.4942 60.4877C46.3673 60.4628 46.3087 60.4794 46.3477 60.5292C46.3966 60.5873 46.3184 60.6039 46.1329 60.5707C45.9766 60.5458 45.5763 60.4877 45.2345 60.4379C44.3751 60.3051 42.3536 59.7738 42.2657 59.6576C42.2266 59.5995 42.1876 59.5829 42.1876 59.6161C42.1876 59.6908 41.2306 59.4003 40.3028 59.0351C39.7657 58.8276 39.5802 58.7196 39.6681 58.6698C39.7559 58.62 39.7364 58.6034 39.5997 58.6366C39.4825 58.6698 39.2188 58.6034 38.9649 58.4789C38.7208 58.3627 38.3985 58.2133 38.2325 58.1469C37.6563 57.8896 35.9864 56.8769 36.0059 56.7856C36.0255 56.7441 35.9766 56.7192 35.8985 56.7441C35.8204 56.769 35.5958 56.6444 35.3809 56.4701C35.1759 56.2958 34.961 56.1381 34.9122 56.1132C34.8536 56.0883 34.8243 56.0385 34.8438 56.0053C34.8536 55.9638 34.8243 55.9555 34.7755 55.9804C34.7266 56.0136 34.5997 55.9389 34.4923 55.8227C34.3848 55.7065 34.2677 55.6151 34.2384 55.6151C34.1016 55.6151 33.7013 55.2499 33.7598 55.1752C33.7891 55.1254 33.7696 55.1171 33.711 55.1503C33.6036 55.2084 32.2266 53.955 31.5528 53.183C31.2208 52.7929 31.1622 52.6767 31.2501 52.5522C31.377 52.3363 31.377 51.913 31.2403 51.6972C31.1134 51.4897 30.5372 51.2821 30.2442 51.3402C30.0489 51.3734 29.9708 51.2738 29.4239 50.3193C27.9591 47.7626 27.1973 45.4135 26.8556 42.3339C26.7481 41.3461 26.8458 39.2045 27.0509 37.9179C27.4415 35.5522 28.1934 33.5268 29.5899 31.1112C29.8829 30.6049 29.9317 30.5634 30.1075 30.6464C30.2442 30.7045 30.4102 30.7045 30.6739 30.6381C31.338 30.4721 31.5235 30.0072 31.1524 29.4843L30.9473 29.2104L31.3184 28.7787C32.1388 27.8075 32.9102 27.0522 34.0138 26.1308C36.0938 24.3793 37.7442 23.3749 40.2833 22.3207C42.4708 21.4159 45.0782 20.6938 46.2696 20.6772L46.6798 20.6689L46.6602 21.308ZM50.7618 21.8725L50.8009 22.578H50.0587H49.3165V21.8725V21.1669H50.0294H50.7325L50.7618 21.8725ZM26.6114 22.246C26.9434 22.5531 26.5821 23.0429 26.0938 22.935C25.879 22.8935 25.7227 22.6361 25.7716 22.412C25.8497 22.0634 26.3087 21.9638 26.6114 22.246ZM73.9649 22.3539C74.1016 22.6777 73.9454 22.8686 73.5255 22.8686C73.2618 22.8686 73.1837 22.8271 73.1055 22.6444C73.0274 22.4618 73.047 22.3788 73.1934 22.246C73.4571 21.997 73.8477 22.0551 73.9649 22.3539ZM31.6212 22.2626C31.8848 22.4867 31.6993 22.9931 31.3575 22.9931C31.1524 22.9931 30.8595 22.7441 30.8595 22.5697C30.8595 22.2543 31.3673 22.0468 31.6212 22.2626ZM34.2384 22.3705C34.3848 22.5614 34.3848 22.5946 34.2384 22.7856C34.1505 22.9018 34.004 22.9931 33.9161 22.9931C33.6817 22.9931 33.3985 22.7441 33.3985 22.5365C33.3985 22.1381 33.9649 22.0219 34.2384 22.3705ZM66.5626 22.3705C66.7091 22.5614 66.7091 22.5946 66.5626 22.7856C66.377 23.0263 66.1524 23.0512 65.8985 22.852C65.7032 22.7026 65.6739 22.5531 65.8204 22.3207C65.9669 22.0966 66.3673 22.1215 66.5626 22.3705ZM69.0821 22.4369C69.1602 22.6278 69.1407 22.6943 68.9649 22.8437C68.7891 23.0014 68.7208 23.0097 68.5059 22.9267C68.2325 22.8188 68.1641 22.4452 68.379 22.2626C68.5938 22.08 68.9845 22.1796 69.0821 22.4369ZM29.0626 23.4911C29.463 23.6156 29.7364 23.9643 29.7364 24.3461C29.7364 24.9355 28.9552 25.3173 28.2911 25.06C27.7638 24.8525 27.5782 24.1801 27.9395 23.79C28.2716 23.433 28.5938 23.35 29.0626 23.4911ZM71.7384 23.7152C72.0606 24.0141 72.1192 24.2548 71.9337 24.5536C71.5919 25.1098 70.9766 25.226 70.4981 24.8276C69.8927 24.3129 70.2735 23.4911 71.1134 23.4911C71.3966 23.4911 71.5528 23.5492 71.7384 23.7152ZM49.4141 26.5375C49.4141 29.7001 49.4141 29.7167 50.0001 29.7167C50.5079 29.7167 50.5079 29.6918 50.4981 26.5624L50.4786 23.6571H51.2208H51.9532V26.2968V28.9447L51.6505 29.4594C51.2501 30.1484 50.7716 30.4223 50.0001 30.4223C49.2384 30.4223 48.7794 30.1567 48.3399 29.4594L47.9981 28.9281L47.9688 26.413C47.9493 25.0268 47.9591 23.8398 47.9884 23.7734C48.0274 23.6903 48.2227 23.6571 48.7306 23.6571H49.4141V26.5375ZM46.7774 24.3046V24.7943L46.2208 24.894C45.3419 25.06 43.8868 25.475 43.086 25.7821C42.6856 25.9399 42.3438 26.0561 42.3438 26.0478C42.3341 26.0312 42.2364 25.8485 42.1192 25.641L41.9044 25.2509L42.5587 25.0019C43.4962 24.6366 46.0157 23.9311 46.7091 23.8315C46.7481 23.8315 46.7774 24.039 46.7774 24.3046ZM54.2774 24.0722C55.3419 24.3046 56.377 24.6117 57.2462 24.9604L58.0079 25.2592L57.793 25.5995C57.6661 25.7904 57.5684 25.9482 57.5684 25.9565C57.5684 25.9648 57.0802 25.807 56.4747 25.5995C55.879 25.4003 54.9024 25.1264 54.3067 25.0019L53.2227 24.7777V24.3378C53.2227 23.8315 53.2032 23.8315 54.2774 24.0722ZM26.1427 25.6659C27.2364 26.5956 27.6075 26.9775 27.4024 26.9775C27.3829 26.9775 27.295 27.0024 27.2169 27.0273C27.0411 27.0854 24.4434 24.9521 24.5899 24.8691C24.6485 24.8359 24.6778 24.7611 24.6388 24.6947C24.502 24.371 24.9513 24.6615 26.1427 25.6659ZM75.5665 24.8608C75.5958 24.9521 75.586 25.0019 75.547 24.977C75.5177 24.9521 74.9317 25.4169 74.2384 25.998C73.3204 26.7865 72.9395 27.0522 72.8223 27.0107C72.7345 26.9858 72.6563 26.9027 72.6563 26.828C72.6563 26.7533 73.1934 26.2304 73.8575 25.6659C74.8243 24.8442 75.0977 24.6532 75.293 24.6698C75.4493 24.6864 75.547 24.7528 75.5665 24.8608ZM70.752 25.1679C70.8009 25.1347 70.8009 25.1596 70.7618 25.2177C70.7032 25.3007 70.6544 25.3007 70.547 25.226C70.4688 25.1762 70.4102 25.1098 70.4102 25.0932C70.4102 25.0683 70.4688 25.0932 70.5372 25.143C70.6153 25.1928 70.713 25.2011 70.752 25.1679ZM59.502 25.8319C59.6778 25.9316 59.8243 26.0229 59.8438 26.0312C59.8731 26.0478 59.1016 27.2431 58.8184 27.6083C58.7013 27.766 58.7208 27.7992 59.0821 28.0068C59.297 28.123 59.4727 28.2641 59.4727 28.3139C59.4727 28.3969 58.0763 30.4389 57.4024 31.3437C56.9923 31.8998 56.6505 32.099 56.338 31.9579C56.2403 31.9081 56.1524 31.7836 56.1524 31.6757C56.1524 31.3852 56.504 30.4555 56.8946 29.7416C57.0802 29.393 57.2266 29.0028 57.2266 28.8617C57.2266 28.6044 58.9649 25.6493 59.1114 25.6493C59.1602 25.6493 59.336 25.7323 59.502 25.8319ZM41.1427 26.2055L41.3966 26.6786L41.1329 26.828C40.8009 27.019 40.7716 27.019 40.6446 26.7865C40.586 26.6869 40.4493 26.4877 40.3321 26.3466L40.127 26.081L40.4493 25.9067C40.6251 25.8153 40.8009 25.7323 40.8302 25.7323C40.8595 25.7323 41.0059 25.9482 41.1427 26.2055ZM69.5313 26.0976C69.629 26.2055 69.6192 26.2636 69.4923 26.4379C69.17 26.8529 68.4571 26.6205 68.6622 26.1723C68.8184 25.8153 69.2091 25.7738 69.5313 26.0976ZM46.7774 26.8778V27.268L45.7813 27.5585C45.2345 27.7162 44.5313 27.9486 44.2091 28.0732C43.8966 28.1977 43.6134 28.3056 43.5938 28.3056C43.5743 28.3056 43.4473 28.0981 43.3106 27.8324C43.1056 27.4672 43.086 27.351 43.1837 27.2929C43.4962 27.1186 46.5723 26.3881 46.7091 26.4545C46.7481 26.4711 46.7774 26.662 46.7774 26.8778ZM54.3946 26.745C55.4005 26.9775 56.6407 27.3842 56.6407 27.4921C56.6407 27.5419 56.5528 27.6996 56.4454 27.849L56.2501 28.1147L55.4493 27.8407C55.0001 27.6913 54.336 27.5004 53.9552 27.4174L53.2716 27.268L53.2423 26.8778C53.213 26.4379 53.0958 26.4545 54.3946 26.745ZM61.8165 27.3012C62.8126 27.9486 64.5411 29.393 65.1661 30.0985L65.6153 30.6132L65.2247 30.8373C64.8829 31.0282 64.8145 31.0365 64.7169 30.9369C63.5841 29.7333 62.3927 28.7455 60.9766 27.8324C60.5763 27.5751 60.2638 27.3427 60.2735 27.3178C60.4786 26.9692 60.7813 26.6537 60.8692 26.7035C60.9376 26.7284 61.3575 27.0024 61.8165 27.3012ZM39.4825 27.0522L39.7364 27.3842L39.0821 27.8158C38.1641 28.4384 36.5723 29.7665 35.9376 30.4472L35.4102 31.0282L34.9903 30.7792L34.5704 30.5385L34.8829 30.165C35.6544 29.2436 38.7501 26.745 39.1212 26.7284C39.1798 26.7284 39.3458 26.8778 39.4825 27.0522ZM42.1192 28.0317C42.5684 28.8617 43.5255 30.8207 43.6915 31.2607C43.7794 31.4931 43.8282 31.7421 43.7891 31.8168C43.7013 32.0243 43.2227 31.9911 42.8809 31.7421C42.6075 31.5512 40.3321 28.5546 40.3321 28.3886C40.3321 28.3305 41.6602 27.5834 41.8067 27.5668C41.836 27.5585 41.9727 27.7743 42.1192 28.0317ZM75.9766 28.5463C76.2598 28.7206 76.4259 29.1772 76.3282 29.5009C76.2598 29.7499 75.752 30.0487 75.4102 30.0487C74.8634 30.0487 74.3165 29.5839 74.3165 29.1108C74.3165 28.87 74.6485 28.4882 74.9415 28.3803C75.2149 28.289 75.6739 28.3554 75.9766 28.5463ZM25.2833 29.0111C25.6153 29.1523 25.879 29.6586 25.8106 29.9906C25.6446 30.7294 24.1895 30.8871 23.7696 30.1982C23.2618 29.3681 24.2872 28.5712 25.2833 29.0111ZM61.2598 30.5717C61.5626 30.8041 61.8165 31.0365 61.8165 31.0863C61.8165 31.1278 61.7286 31.2192 61.6114 31.2773C61.4356 31.3769 61.3575 31.3437 60.8595 30.9369C60.5567 30.6879 60.1759 30.3891 60.0098 30.2729C59.7266 30.0653 59.7169 30.0653 59.9024 29.891L60.088 29.7167L60.3907 29.9325C60.5567 30.057 60.9473 30.3393 61.2598 30.5717ZM39.961 29.9408C40.0587 30.0155 40.1368 30.1068 40.1368 30.1484C40.1368 30.1899 39.7266 30.5551 39.2286 30.9535C38.7306 31.3603 38.1348 31.8998 37.8907 32.1488L37.461 32.6137L37.1778 32.4726C37.0313 32.3979 36.8263 32.2568 36.7384 32.1737C36.5821 32.0243 36.5821 32.016 36.7481 32.0658C36.8458 32.099 36.9044 32.0907 36.8653 32.0492C36.836 32.0077 36.8556 31.9496 36.9141 31.9164C36.9727 31.8832 36.9923 31.8251 36.9532 31.7836C36.8848 31.684 37.4903 31.0282 37.6075 31.0946C37.6563 31.1195 37.6759 31.1777 37.6368 31.2192C37.6075 31.2607 37.5391 31.2773 37.4903 31.2524C37.3829 31.1943 37.3829 31.2773 37.5001 31.5014C37.5782 31.6508 37.588 31.6508 37.588 31.518C37.5977 31.435 37.6368 31.3852 37.6856 31.4101C37.7833 31.4599 37.7442 31.1029 37.6368 30.9452C37.5977 30.8871 37.6466 30.9037 37.754 30.9784C37.9298 31.1112 37.9688 31.1112 38.1641 30.995C38.2813 30.9286 38.3595 30.829 38.3302 30.7875C38.2911 30.746 38.3204 30.6464 38.379 30.5717C38.4864 30.4306 38.4864 30.4306 38.4376 30.5717C38.3595 30.7709 38.5743 30.663 39.2091 30.1816C39.4825 29.974 39.7169 29.808 39.7364 29.7997C39.7657 29.7997 39.8634 29.8578 39.961 29.9408ZM47.6368 30.4887L47.9493 30.8622L47.2169 31.0033C46.8165 31.0863 46.5138 31.1777 46.5333 31.2109C46.5626 31.2524 46.504 31.2607 46.3966 31.2358C46.2989 31.2109 46.1817 31.2358 46.1524 31.2856C46.1134 31.3271 46.0157 31.3437 45.9278 31.3188C45.8302 31.2856 45.7911 31.3022 45.8399 31.3603C45.8692 31.4101 45.8009 31.5263 45.6837 31.6176C45.5567 31.7255 45.5177 31.7919 45.5958 31.7919C45.7032 31.7919 45.7032 31.8168 45.5958 31.933C45.4688 32.0575 45.4786 32.0575 45.6934 31.9662C45.8399 31.8915 45.8985 31.8915 45.8595 31.9496C45.8204 31.9994 45.6348 32.099 45.4493 32.1654C45.2149 32.2485 45.1173 32.3315 45.1173 32.4643C45.1173 32.5639 45.4786 33.2279 45.9083 33.9418L46.6993 35.2284L46.4845 35.3778C46.3673 35.4609 46.211 35.5273 46.1427 35.5273C46.0743 35.5273 45.5763 34.9877 45.0391 34.3319C44.4923 33.6845 43.9845 33.0951 43.8966 33.037C43.7013 32.9042 43.711 32.788 43.9063 32.788C44.3165 32.788 44.7852 32.4062 44.961 31.9247C45.0196 31.7836 45.0294 31.7836 45.1954 31.9579L45.3712 32.1405L45.3809 31.9496C45.4005 31.7919 45.3809 31.7836 45.3126 31.8749C45.2345 31.9745 45.2149 31.9579 45.2149 31.8085C45.2149 31.684 45.254 31.6342 45.3321 31.6757C45.3907 31.7089 45.4102 31.7006 45.3809 31.6508C45.3419 31.601 45.4102 31.5429 45.5274 31.518C45.6446 31.4848 45.7227 31.4433 45.6837 31.4184C45.6056 31.352 45.1173 31.5512 45.1173 31.6591C45.1173 31.7089 45.0684 31.6923 45.0196 31.6259C44.9708 31.5595 44.922 31.3271 44.922 31.1195V30.7294L45.6348 30.5136C46.504 30.248 47.1973 30.0653 47.2657 30.0985C47.295 30.1068 47.461 30.2812 47.6368 30.4887ZM53.9552 30.3642L55.0294 30.6713L55.0098 31.0697C55.0001 31.2939 54.9806 31.4931 54.9513 31.5097C54.9317 31.5263 54.7852 31.4931 54.629 31.4267C54.2872 31.2773 52.4806 30.8788 52.1681 30.8788C51.9532 30.8788 51.9727 30.8539 52.3536 30.4638C52.5782 30.2314 52.7931 30.0487 52.8223 30.057C52.8516 30.057 53.3692 30.1982 53.9552 30.3642ZM38.1837 30.7128C38.252 30.8207 38.252 30.8871 38.1641 30.9286C38.0958 30.9618 38.0665 30.9535 38.1153 30.9203C38.1544 30.8788 38.1153 30.7626 38.0274 30.6464C37.9395 30.5385 37.92 30.4721 37.9786 30.497C38.0372 30.5302 38.1251 30.6298 38.1837 30.7128ZM75.6739 31.435C75.7325 31.5263 75.7227 31.6508 75.6641 31.7836C75.6153 31.8998 75.5958 32.2485 75.6251 32.5556C75.6739 33.0619 75.6641 33.12 75.4786 33.203C75.0977 33.3774 75.0001 33.1864 75.0001 32.2983C75.0001 31.7836 75.0391 31.4599 75.1173 31.3935C75.2833 31.2524 75.5567 31.269 75.6739 31.435ZM34.3946 31.6591L34.7559 31.933L34.4141 32.3564L34.0626 32.7797L33.6817 32.5639C33.4766 32.4477 33.3009 32.2983 33.3009 32.2402C33.3009 32.0824 33.8184 31.3769 33.9356 31.3769C33.9845 31.3852 34.1993 31.5097 34.3946 31.6591ZM66.5821 31.8168C66.7579 32.0575 66.8946 32.2817 66.8946 32.3066C66.8946 32.3315 66.7091 32.456 66.4942 32.5805C66.172 32.7548 66.0743 32.7797 66.0059 32.6884C65.8692 32.5141 65.9083 32.4228 66.0645 32.539C66.2696 32.6801 66.2501 32.5639 66.0059 32.2318C65.8888 32.0741 65.7423 31.9662 65.6739 31.9911C65.4005 32.0741 65.4591 31.933 65.8009 31.6674C66.0059 31.5097 66.1817 31.3769 66.211 31.3769C66.2403 31.3769 66.4063 31.5761 66.5821 31.8168ZM36.797 31.7587C36.797 31.8832 36.7579 31.9413 36.6993 31.8915C36.6505 31.85 36.6407 31.7587 36.6798 31.684C36.7677 31.4931 36.797 31.5097 36.797 31.7587ZM50.3907 33.1366V34.6972H49.9513H49.5118V33.1366V31.5844H49.9513H50.3907V33.1366ZM46.8165 32.099C47.0899 32.9291 47.5684 34.141 47.7735 34.4731C47.9102 34.7138 48.0079 34.7802 48.1251 34.7387C48.5255 34.6059 48.8282 34.5976 48.8282 34.7055C48.8282 34.8466 47.3829 35.2118 47.295 35.0873C47.2657 35.0458 46.9727 34.3236 46.6407 33.4853L46.0352 31.9662L46.2306 31.7919C46.5431 31.5346 46.6505 31.5927 46.8165 32.099ZM55.9473 32.8295C56.1134 32.871 56.0059 33.037 55.0977 34.1576C54.4727 34.9296 53.9845 35.4443 53.8966 35.4443C53.8087 35.4443 53.6427 35.3778 53.5255 35.2948L53.3204 35.1537L54.1505 33.9086C54.5997 33.2196 55.0196 32.5971 55.0782 32.5141C55.1759 32.373 55.2052 32.373 55.4688 32.5722C55.6348 32.6801 55.8497 32.7963 55.9473 32.8295ZM61.8458 32.5556C61.0157 33.4936 59.922 34.4897 56.9337 37.0463C54.9708 38.7231 53.379 40.1342 53.3888 40.1757C53.4083 40.2255 53.3595 40.2504 53.2911 40.2338C53.2325 40.2255 53.1837 40.267 53.1934 40.3168C53.213 40.3749 53.1837 40.4164 53.1446 40.3998C53.0079 40.3666 52.4317 40.8232 52.5391 40.8813C52.6173 40.9228 52.6075 40.9809 52.5196 41.0722C52.422 41.1884 52.422 41.1967 52.5391 41.1054C52.7149 40.9726 52.8809 40.9726 52.754 41.1137C52.6856 41.1801 52.6856 41.2631 52.7345 41.3378C52.8223 41.4457 52.8321 41.4457 52.8419 41.3378C52.8516 41.2714 52.8712 41.1303 52.8809 41.0307C52.8907 40.9145 52.8614 40.8647 52.7735 40.8979C52.6954 40.9228 52.6368 40.8896 52.6368 40.8315C52.6368 40.7734 52.6661 40.7568 52.7052 40.7817C52.7931 40.8647 53.0372 40.6654 52.9591 40.5658C52.9298 40.5243 52.9493 40.5077 53.0079 40.5326C53.0567 40.5658 53.086 40.6737 53.047 40.7734C53.0079 40.9062 53.0274 40.9311 53.1251 40.8813C53.2032 40.8398 53.1934 40.8896 53.0958 41.0141C52.8809 41.2714 52.8712 41.8026 53.086 41.8691C53.2032 41.9106 53.2325 41.9936 53.1934 42.1928C53.1446 42.4584 53.1446 42.4584 53.252 42.226C53.3595 41.9936 53.5255 41.9189 53.5059 42.1015C53.4864 42.4916 52.2462 43.7948 51.9825 43.7118C51.9044 43.6869 51.8653 43.6952 51.8946 43.7367C51.9532 43.8114 51.6114 43.9609 50.9766 44.1269C50.4395 44.268 49.1895 44.2846 49.4141 44.1518C49.5313 44.0854 49.4923 44.0771 49.2677 44.102C48.9161 44.1518 47.6856 43.6869 47.7247 43.5209C47.7442 43.4628 47.6954 43.4379 47.6173 43.4628C47.461 43.5126 47.2364 43.2221 47.3438 43.1225C47.3829 43.081 47.3634 43.081 47.295 43.1142C47.1583 43.1806 46.6602 42.5912 46.504 42.1679C46.2794 41.5702 46.2696 40.6654 46.4845 40.0844C46.8556 39.0717 47.6563 38.3993 48.8575 38.0839C49.8048 37.8432 50.586 37.9013 51.4747 38.2914L52.1485 38.5819L52.6075 38.2748C52.8712 38.1088 54.1309 37.2538 55.42 36.3905C58.6622 34.2074 60.0294 33.3525 61.6212 32.5224C61.8946 32.3813 61.9923 32.3979 61.8458 32.5556ZM42.6368 33.037C42.8516 33.311 43.0567 33.5351 43.1056 33.5351C43.1544 33.5351 42.8028 33.8837 42.3243 34.307C41.8458 34.7304 41.338 35.1952 41.2013 35.3446L40.9376 35.6103L41.3966 35.8842C41.6407 36.0419 42.2462 36.3905 42.7247 36.6645C43.877 37.3202 43.8966 37.3368 43.6231 37.6689C43.4083 37.9262 43.2618 38.0092 43.2618 37.8598C43.2618 37.8183 43.1446 37.727 43.0079 37.644C42.8321 37.5443 42.7735 37.536 42.8223 37.6108C42.8614 37.6772 42.8028 37.644 42.7052 37.5527C42.6075 37.453 41.9727 37.1044 41.2794 36.7724C40.5958 36.4486 39.9513 36.1166 39.8341 36.0336C39.6388 35.9008 39.6388 35.9008 39.9708 35.5273C40.1466 35.3197 40.3809 35.0375 40.4786 34.8881C40.6446 34.6391 40.6544 34.6142 40.4884 34.4067C40.3321 34.1991 40.3321 34.1825 40.5274 33.9086C40.6934 33.6845 42.1095 32.539 42.2266 32.539C42.2462 32.539 42.4317 32.7631 42.6368 33.037ZM37.8907 33.9003C38.6134 34.307 39.2188 34.6391 39.2384 34.6557C39.2579 34.6723 39.1309 34.8715 38.9552 35.1039C38.672 35.5107 38.6329 35.5273 38.4376 35.4193C38.3302 35.3529 37.754 35.0707 37.1583 34.7802C36.2794 34.3485 35.1173 33.7509 34.9806 33.6596C34.961 33.643 35.1075 33.4272 35.3028 33.1698L35.6446 32.7133L36.1134 32.9457C36.3673 33.0702 37.1681 33.5019 37.8907 33.9003ZM57.9102 32.788C57.9102 32.8295 57.8712 32.871 57.8126 32.871C57.7638 32.871 57.7149 32.8295 57.7149 32.788C57.7149 32.7382 57.7638 32.705 57.8126 32.705C57.8712 32.705 57.9102 32.7382 57.9102 32.788ZM64.7364 33.1034C64.9024 33.3276 65.0391 33.5434 65.0391 33.5849C65.0391 33.6596 63.8282 34.3402 63.4864 34.4565C63.3985 34.4897 62.9395 34.7221 62.461 34.9794C61.2305 35.6352 61.0548 35.6103 61.7091 34.8549C61.9239 34.6059 62.2266 34.2572 62.3731 34.0829C62.6075 33.8007 64.1895 32.7133 64.3653 32.705C64.4044 32.705 64.5704 32.8876 64.7364 33.1034ZM25.1661 33.3027C25.4298 33.5102 25.4591 33.9086 25.2345 34.1825C25.0294 34.4399 24.4044 34.4399 24.1212 34.1825C23.8673 33.9501 23.8673 33.5019 24.1212 33.286C24.3848 33.0619 24.8731 33.0702 25.1661 33.3027ZM33.4962 33.6181C33.4962 33.643 33.3204 34.0082 33.1153 34.4233C32.5391 35.5522 32.2071 36.54 31.8946 38.1171C31.8263 38.4325 31.8263 38.4325 31.3477 38.4325C30.8888 38.4325 30.8595 38.4242 30.8595 38.2167C30.8595 37.8017 31.3477 35.9672 31.6505 35.2284C31.8165 34.8217 32.1192 34.1825 32.3243 33.8007L32.7052 33.1117L33.1056 33.3359C33.3204 33.4604 33.4962 33.5849 33.4962 33.6181ZM67.8028 33.9003C68.4473 35.2118 68.9356 36.6894 69.1798 38.0839L69.2384 38.4408L68.7403 38.4159L68.2325 38.391L68.0079 37.4364C67.7638 36.4071 67.2071 34.8466 66.836 34.1327C66.7091 33.8837 66.6016 33.6513 66.6016 33.6181C66.6016 33.5351 67.1973 33.203 67.3438 33.203C67.4122 33.203 67.6173 33.5185 67.8028 33.9003ZM36.0645 35.4443C36.1036 35.4692 35.9376 36.0004 35.7032 36.6147C35.4591 37.2289 35.2345 37.8847 35.1954 38.0756L35.127 38.4325H34.2091H33.2911L33.3497 38.1171C33.4864 37.453 33.9259 36.1166 34.2481 35.3861L34.5899 34.6308L35.2833 35.0043C35.6739 35.2118 36.0157 35.411 36.0645 35.4443ZM52.3731 34.83C52.6563 34.913 52.8321 35.0126 52.8321 35.0873C52.8321 35.1703 52.7735 35.1952 52.6661 35.1537C52.5684 35.1288 52.1681 35.0209 51.7872 34.9213C51.3966 34.83 51.0743 34.7138 51.0743 34.6723C51.0743 34.5727 51.7481 34.6557 52.3731 34.83ZM75.6641 35.079C75.918 35.2284 75.9376 35.4941 75.713 35.7099C75.5177 35.8925 75.3126 35.9008 75.0782 35.7182C74.8341 35.5356 74.8536 35.2284 75.1173 35.079C75.2345 35.0043 75.3614 34.9462 75.3907 34.9462C75.42 34.9462 75.547 35.0043 75.6641 35.079ZM64.7169 35.8842C64.9903 36.6064 65.293 37.6025 65.3809 38.0756C65.4493 38.4325 65.4395 38.4325 65.1563 38.4325C64.8731 38.4325 64.8536 38.4076 64.7462 37.9511C64.6583 37.561 64.0723 35.8759 63.9063 35.5688C63.8673 35.4775 64.3653 35.1786 64.4434 35.245C64.4727 35.2616 64.5899 35.5522 64.7169 35.8842ZM45.1661 36.4403C44.6095 36.9218 44.336 37.0463 44.336 36.8388C44.336 36.7807 44.5997 36.5151 44.9317 36.2494C45.3712 35.8842 45.5567 35.7846 45.6348 35.851C45.713 35.9174 45.5958 36.0751 45.1661 36.4403ZM39.5997 36.9467C40.1075 37.1874 40.127 37.2123 39.9903 37.3783C39.922 37.4779 39.7657 37.8183 39.6388 38.142C39.5216 38.4574 39.4044 38.748 39.3848 38.7812C39.3653 38.8144 39.2091 38.7646 39.0333 38.6816C38.8575 38.5902 38.6036 38.5155 38.4571 38.5155C38.2227 38.5155 38.1837 38.4823 38.1837 38.2665C38.1837 37.9013 38.7501 36.6894 38.9259 36.6894C39.004 36.6894 39.3067 36.8056 39.5997 36.9467ZM63.7696 38.3661C63.7696 38.4076 63.5938 38.4325 63.3888 38.4325C63.1739 38.4325 62.9786 38.4076 62.9591 38.3661C62.9298 38.3329 63.1055 38.308 63.3399 38.308C63.5743 38.308 63.7696 38.3329 63.7696 38.3661ZM43.3595 38.5653C43.3595 38.5902 43.2911 38.8061 43.2227 39.0385C43.1446 39.2792 43.0274 39.6278 42.9688 39.8188C42.8516 40.2255 42.6759 40.2919 42.6759 39.9433C42.6759 39.5365 43.0958 38.5155 43.2618 38.5155C43.3106 38.5155 43.3595 38.5404 43.3595 38.5653ZM57.129 39.0717C57.295 39.5863 57.3634 40.0927 57.2559 40.0927C57.1583 40.0927 56.836 39.163 56.836 38.8891C56.836 38.6484 57.0216 38.7646 57.129 39.0717ZM38.2716 39.4784C38.6817 39.5531 38.6622 39.7275 38.213 40.2089L37.8419 40.5907H34.1602H30.4688V40.0678C30.4688 39.7773 30.4981 39.5116 30.5372 39.4867C30.6153 39.412 37.8614 39.412 38.2716 39.4784ZM69.5313 40.0097V40.5907L68.3888 40.599C67.754 40.599 66.0743 40.599 64.6485 40.599L62.0606 40.5907L61.6993 40.2504C61.2696 39.852 61.211 39.5448 61.5528 39.4867C61.67 39.4701 63.5157 39.4452 65.6544 39.4369L69.5313 39.4286V40.0097ZM53.672 41.4374C53.6134 41.8026 53.5743 41.8857 53.4181 41.8857C53.3106 41.8857 53.2032 41.8193 53.1739 41.7445C53.0958 41.5453 53.1544 41.0888 53.2423 41.1386C53.2813 41.1635 53.3204 41.0805 53.3302 40.9477C53.3399 40.7318 53.3497 40.7318 53.4181 41.0058C53.4669 41.1635 53.4864 41.4042 53.4571 41.5453L53.4181 41.7943L53.5157 41.5453C53.5645 41.4042 53.5938 41.1054 53.5645 40.8813C53.5255 40.4994 53.5255 40.4828 53.6231 40.7318C53.6915 40.8896 53.711 41.1801 53.672 41.4374ZM42.6368 40.6986C42.6759 40.7318 42.7052 40.9145 42.7149 41.1054L42.7247 41.4623L41.0548 41.4872L39.3946 41.5038L39.1602 41.2963L38.9259 41.0888L39.2188 40.8315L39.502 40.5741L41.0352 40.6073C41.8848 40.6322 42.6075 40.6737 42.6368 40.6986ZM60.6739 40.8564C61.0059 41.1386 61.0059 41.1884 60.6544 41.3627C60.42 41.4789 60.1075 41.5038 58.8477 41.5038H57.3243V41.1054C57.3243 40.8813 57.3536 40.6737 57.3927 40.6405C57.4317 40.6073 58.1251 40.5907 58.9356 40.6073C60.3907 40.6322 60.4102 40.6322 60.6739 40.8564ZM38.3302 42.0517C39.0235 42.8236 38.9942 42.8319 34.4337 42.8319C30.2052 42.8319 30.5665 42.8984 30.5665 42.1181V41.6698H34.2774H37.9786L38.3302 42.0517ZM69.463 42.1845C69.4337 42.475 69.3555 42.7323 69.297 42.7655C69.2384 42.7987 67.4708 42.8153 65.3614 42.807C62.5001 42.7987 61.504 42.7655 61.4161 42.6908C61.2696 42.5663 61.377 42.3256 61.7677 41.9355L62.0313 41.6698H65.7813H69.5313L69.463 42.1845ZM43.0763 42.7489C43.252 43.3466 43.2911 43.579 43.2032 43.579C43.0763 43.579 42.7345 42.7821 42.6173 42.226C42.5684 41.9936 42.588 41.9189 42.6856 41.9189C42.7735 41.9189 42.9102 42.2011 43.0763 42.7489ZM57.422 42.0683C57.422 42.226 57.0509 43.3964 56.963 43.5209C56.9337 43.5624 56.8751 43.5624 56.8165 43.5126C56.7481 43.4545 56.9434 42.6493 57.1778 42.0185C57.2364 41.8691 57.422 41.9023 57.422 42.0683ZM39.6485 44.0937C39.7755 44.4257 39.922 44.7411 39.9708 44.7992C40.0782 44.9237 39.0723 45.372 38.8575 45.3056C38.7013 45.2558 38.2325 44.0937 38.3302 44.0107C38.3985 43.9526 39.2774 43.5209 39.3556 43.5043C39.3848 43.496 39.5118 43.7699 39.6485 44.0937ZM61.0548 43.7118C61.2598 43.8363 61.4259 43.9858 61.4259 44.0522C61.4259 44.1186 61.4747 44.1435 61.5235 44.1186C61.5821 44.0937 61.6212 44.102 61.6212 44.1518C61.6212 44.1933 61.5821 44.2431 61.5333 44.2597C61.4845 44.268 61.4259 44.3925 61.3966 44.5336C61.3673 44.6664 61.2891 44.9071 61.2305 45.0566C61.1036 45.3471 61.0645 45.3471 60.3907 45.1147C60.0294 44.9901 59.9122 44.8573 60.0391 44.7162C60.088 44.6581 60.2345 44.3676 60.3614 44.0522C60.4884 43.745 60.6153 43.496 60.6348 43.496C60.6641 43.496 60.8497 43.5956 61.0548 43.7118ZM35.0977 43.8944C35.127 43.9359 35.3712 44.5004 35.6348 45.1396L36.1134 46.31L35.42 46.6005C35.0294 46.7582 34.6876 46.8578 34.6388 46.8246C34.5606 46.7582 33.8477 45.289 33.7696 45.0068C33.711 44.8324 33.7306 44.8241 34.336 44.8241C34.7462 44.8241 34.961 44.8573 34.961 44.9237C34.961 44.9735 34.9903 44.9984 35.0196 44.9735C35.0489 44.9486 35.0294 44.7826 34.9806 44.6083C34.7657 43.8695 34.7559 43.828 34.9024 43.828C34.9806 43.828 35.0684 43.8612 35.0977 43.8944ZM65.3321 43.8861C65.3321 43.9276 65.2442 44.2182 65.1466 44.5502C65.0489 44.8822 64.9903 45.1645 65.0196 45.1894C65.0391 45.2143 65.0098 45.3056 64.9415 45.3803C64.8634 45.4633 64.922 45.4384 65.0587 45.3222C65.1954 45.206 65.2638 45.0981 65.2247 45.0898C65.1759 45.0732 65.1368 44.9984 65.1368 44.932C65.1368 44.7245 65.4298 44.9735 65.4395 45.1894C65.4493 45.3305 65.4591 45.3305 65.4981 45.2143C65.5567 45.0068 65.7227 45.04 65.7325 45.2558C65.7423 45.4384 65.7423 45.4384 65.8204 45.2392C65.879 45.0815 65.8985 45.0732 65.9083 45.1894C65.918 45.3139 65.9473 45.3222 66.0645 45.2392C66.2013 45.1479 66.2013 45.1562 66.1231 45.3305C65.5567 46.6088 65.4005 46.8993 65.293 46.8993C65.0489 46.8993 64.5899 46.4511 64.6192 46.2353L64.6388 46.0277L64.5704 46.2353C64.4825 46.476 64.2774 46.5341 64.0333 46.3847C63.8673 46.2851 63.877 46.2519 64.1016 45.7787C64.2286 45.5048 64.4337 44.9984 64.5509 44.6581C64.6778 44.3178 64.8145 43.9858 64.8731 43.9276C64.9708 43.8197 65.3321 43.7865 65.3321 43.8861ZM43.7403 44.2846C43.9063 44.5336 43.9259 44.6083 43.8184 44.7494C43.7598 44.8407 43.1153 45.2558 42.4024 45.6708C41.6895 46.0942 41.0841 46.4594 41.0645 46.4843C40.9962 46.5756 41.4454 47.0653 41.5821 47.0653C41.6602 47.0653 41.9825 46.8495 42.3145 46.5839C42.6466 46.3183 43.2423 45.87 43.6427 45.5795L44.3653 45.0566L44.9806 45.5795C45.3223 45.87 45.6056 46.1357 45.6056 46.1689C45.6056 46.2934 45.4395 46.2353 44.9903 45.9364C44.7462 45.7704 44.502 45.6542 44.4434 45.6708C44.3653 45.6957 43.6134 46.2519 42.2852 47.2895L41.9434 47.5634L42.2852 47.7875C42.4708 47.9203 42.7345 48.0946 42.8614 48.1943L43.1056 48.3686L42.7345 48.7587C42.5294 48.9662 42.3048 49.1405 42.2266 49.1405C42.0802 49.1405 41.1622 48.4765 40.7813 48.0946C40.5177 47.8207 40.4493 47.5302 40.6251 47.4389C40.8009 47.3476 40.7227 47.1982 40.1856 46.5839L39.6485 45.9779L40.3126 45.621C40.8009 45.3554 43.4181 44.0356 43.5255 44.0024C43.5255 43.9941 43.6231 44.1269 43.7403 44.2846ZM58.838 45.1977C59.6485 45.6044 60.3126 45.9447 60.3321 45.953C60.3516 45.9613 60.2345 46.1357 60.0782 46.3432L59.8048 46.7167L59.463 46.5424C58.545 46.0693 57.0216 45.2558 56.5919 44.9984C56.3282 44.8407 56.0938 44.6996 56.0743 44.6913C56.0548 44.683 56.1329 44.5253 56.2403 44.3344L56.4454 44.0024L56.9044 44.2348C57.1681 44.3676 58.0372 44.7992 58.838 45.1977ZM31.504 45.2973C31.4942 45.4135 31.5528 45.4384 31.7384 45.4135C32.3243 45.3305 32.3145 45.3222 32.7052 46.1938C32.9102 46.6503 33.1446 47.1318 33.2227 47.2729C33.545 47.8124 33.5352 47.8705 33.1153 48.0614C32.9005 48.1527 32.7052 48.2275 32.6856 48.2275C32.5196 48.2275 31.2989 45.372 31.3966 45.2392C31.4845 45.1147 31.5235 45.1396 31.504 45.2973ZM55.8204 45.2558C55.8985 45.3637 55.127 45.9945 54.6681 46.2021C54.1895 46.4179 54.3458 46.1523 55.0098 45.6376C55.6641 45.1313 55.713 45.1064 55.8204 45.2558ZM68.5352 45.8949C68.4083 46.2768 67.92 47.3227 67.6759 47.7377L67.4805 48.0531L67.1192 47.8456C66.9141 47.7294 66.7384 47.6215 66.7188 47.6049C66.6895 47.5883 66.9239 47.0487 67.2364 46.4096L67.793 45.2475L68.213 45.4218C68.6231 45.5961 68.6329 45.5961 68.5352 45.8949ZM38.8673 46.7582C39.2091 47.2397 39.1993 47.2314 39.004 47.3642C38.545 47.663 36.4454 48.8832 36.1622 48.9994C35.8106 49.1571 35.8204 49.1654 35.3516 48.4765L35.0391 48.0282L35.254 47.8954C35.4786 47.7626 38.4962 46.4013 38.5743 46.4013C38.6036 46.4013 38.7306 46.559 38.8673 46.7582ZM65.0098 48.0282C65.0489 48.1278 64.5509 48.8334 64.3653 48.9247C64.3165 48.9496 64.0821 48.8749 63.8282 48.7587C63.5841 48.6425 63.3399 48.5678 63.2813 48.601C63.213 48.6342 61.3673 47.7211 60.7618 47.3476C60.7423 47.3393 60.8888 47.1234 61.0841 46.8661L61.4356 46.393L63.2032 47.165C64.17 47.58 64.9805 47.9784 65.0098 48.0282ZM46.504 46.6254C46.6016 46.7001 46.6798 46.7914 46.6798 46.8329C46.6798 46.9491 45.3321 49.0492 44.8927 49.6137L44.4923 50.1283L44.1212 49.8378C43.8673 49.6469 43.6524 49.5556 43.4571 49.5556C43.2911 49.5556 43.1641 49.5307 43.1641 49.5058C43.1641 49.4809 43.2813 49.3315 43.4278 49.1737C43.6036 48.9662 43.7403 48.8915 43.8673 48.9247C44.0138 48.9496 44.1602 48.8334 44.5118 48.3686C46.045 46.3847 46.1134 46.3266 46.504 46.6254ZM54.0723 46.6254C54.1407 46.7084 54.6095 47.2895 55.0977 47.9203C55.8497 48.8832 56.0059 49.0409 56.1329 48.9579C56.2501 48.8749 56.3282 48.9081 56.6016 49.182L56.9239 49.5141L56.5723 49.539C56.3575 49.5556 56.0743 49.6635 55.8692 49.8129L55.5177 50.0619L55.3028 49.8378C54.9903 49.5058 53.3204 46.9325 53.3204 46.7831C53.3204 46.6503 53.5743 46.4926 53.7989 46.4843C53.877 46.4843 53.9942 46.5507 54.0723 46.6254ZM75.7227 46.7831C75.9669 46.9906 75.8985 47.3393 75.5763 47.4804C75.3321 47.5966 74.9122 47.4223 74.8438 47.1733C74.7169 46.7665 75.3712 46.4843 75.7227 46.7831ZM52.7931 47.1318C52.7345 47.2065 52.1485 47.3642 51.4454 47.4804C50.9083 47.5717 50.9571 47.3476 51.4942 47.2314C51.7188 47.1816 52.0802 47.0902 52.295 47.0321C52.6759 46.9242 52.9102 46.974 52.7931 47.1318ZM47.92 47.1068C48.8282 47.2895 48.9259 47.3144 48.9259 47.4057C48.9259 47.5966 47.2755 47.2895 47.1876 47.0819C47.1388 46.9574 47.1192 46.9574 47.92 47.1068ZM59.297 47.9203C59.2286 48.1444 58.0763 49.1405 57.8809 49.1405C57.8028 49.1405 57.5782 48.9745 57.3829 48.7753L57.0313 48.4101L57.7833 47.7875L58.5352 47.165L58.9454 47.4472C59.2677 47.6713 59.3458 47.7792 59.297 47.9203ZM50.3907 47.995C50.3907 48.3271 50.42 48.9662 50.4591 49.4062L50.5177 50.2196H50.0196H49.5118V48.8085V47.3974H49.9513H50.3907V47.995ZM25.2442 48.1943C25.6934 48.3686 25.9083 48.767 25.7716 49.1654C25.6446 49.5556 25.3614 49.7216 24.8243 49.7216C24.4825 49.7216 24.3458 49.6718 24.1114 49.4809C23.6524 49.0824 23.7794 48.3935 24.3653 48.1776C24.7462 48.0365 24.8634 48.0365 25.2442 48.1943ZM66.6016 48.7255C66.7384 48.8168 66.7774 48.8749 66.6895 48.85C66.6016 48.8168 66.4649 48.85 66.3966 48.9164C66.2501 49.0326 65.879 49.2235 65.7716 49.2235C65.7423 49.2235 65.8204 49.0741 65.9376 48.8915C66.1915 48.518 66.2598 48.5014 66.6016 48.7255ZM34.3263 49.1405C34.463 49.373 34.5411 49.5473 34.502 49.539C34.4532 49.5307 34.3165 49.5722 34.1798 49.6303L33.9356 49.7299L34.17 49.5722L34.4044 49.4145L34.0723 49.3564C33.8966 49.3315 33.7306 49.3315 33.7013 49.3647C33.5841 49.4892 33.3985 49.4643 33.3106 49.3149C33.2227 49.182 33.252 49.1405 33.4962 49.0575C33.6524 48.9994 33.838 48.9081 33.8966 48.8417C33.9552 48.7753 34.0235 48.7255 34.0431 48.7255C34.0626 48.7255 34.1895 48.9164 34.3263 49.1405ZM75.6739 49.0824C75.7325 49.1488 75.7618 49.2152 75.7325 49.2401C75.713 49.2568 75.6641 49.6303 75.6251 50.0619C75.586 50.4936 75.547 50.8588 75.5274 50.8754C75.5079 50.892 75.3809 50.8671 75.2442 50.8173C75.0098 50.726 75.0001 50.6928 75.0001 49.9457C75.0001 49.1571 75.0782 48.9745 75.4005 48.9745C75.4884 48.9745 75.6153 49.0243 75.6739 49.0824ZM38.3302 50.0287C38.8282 50.477 39.4727 50.9916 39.7755 51.1742C40.0782 51.3568 40.3223 51.5478 40.3321 51.5893C40.3419 51.7719 40.0294 52.0375 39.8634 51.996C39.7266 51.9545 39.7169 51.9628 39.8438 52.0375C39.9708 52.1122 39.9708 52.1371 39.8341 52.2533C39.6973 52.3695 39.6583 52.3695 39.4239 52.2118C39.2774 52.1122 39.1798 51.996 39.2091 51.9545C39.2481 51.913 39.2091 51.8964 39.1407 51.9213C38.9845 51.9628 38.6524 51.7387 38.4864 51.4814C38.4181 51.3818 38.3302 51.3153 38.2911 51.3402C38.2423 51.3568 38.086 51.2489 37.9493 51.0912C37.8028 50.9335 37.7247 50.8007 37.7638 50.7924C37.8028 50.7924 37.7442 50.7592 37.6173 50.7094C37.4903 50.6679 37.422 50.6015 37.4513 50.5517C37.4903 50.5019 37.461 50.477 37.3927 50.4853C37.2755 50.5102 37.2559 50.477 37.2169 50.1947C37.2071 50.1283 37.1778 50.1366 37.1095 50.2196C37.0313 50.3193 37.0118 50.3193 37.0118 50.1781C37.0118 50.0868 36.963 49.954 36.9044 49.8876C36.8165 49.788 36.8067 49.7963 36.8556 49.9291C36.9141 50.0951 36.9141 50.0951 36.7677 49.9374C36.6895 49.8461 36.6212 49.7465 36.6212 49.7216C36.6212 49.6718 37.3048 49.2235 37.3829 49.2235C37.4024 49.2235 37.8321 49.5888 38.3302 50.0287ZM63.2325 49.4228C63.3985 49.5224 63.4083 49.5639 63.2813 49.7714C63.213 49.9042 63.1544 50.0453 63.1739 50.0785C63.1837 50.12 63.1446 50.1283 63.0958 50.1034C62.9884 50.0453 62.2462 50.7924 62.2852 50.9169C62.3048 50.9667 62.2852 50.9833 62.2559 50.9501C62.1583 50.8671 61.797 51.0414 61.8653 51.1244C61.8848 51.1659 61.8165 51.2157 61.7091 51.2406C61.5919 51.2655 61.5333 51.3236 61.5723 51.3734C61.6016 51.4233 61.5626 51.4648 61.4747 51.4648C61.3868 51.4648 61.3477 51.5063 61.377 51.5478C61.4161 51.5976 61.3868 51.6225 61.3087 51.6142C61.2403 51.5976 61.1915 51.6391 61.211 51.6972C61.2208 51.7636 61.1915 51.7885 61.1329 51.7553C61.0841 51.7304 61.0059 51.7636 60.9766 51.83C60.9473 51.9047 60.8497 51.9628 60.7716 51.9628C60.6934 51.9628 60.6544 51.996 60.6934 52.0375C60.7618 52.1371 60.3516 52.3861 60.2345 52.328C60.0587 52.2367 59.6583 51.6059 59.7364 51.5561C60.8497 50.7758 61.5919 50.2196 62.0606 49.8129C62.6563 49.29 62.9005 49.2152 63.2325 49.4228ZM46.0743 49.9706C46.5138 50.1034 47.1681 50.2777 47.5294 50.3525C47.9005 50.4272 48.2423 50.4936 48.3009 50.5102C48.3595 50.5268 48.1641 50.7592 47.8712 51.0331L47.3243 51.5229L46.2598 51.2074C44.8731 50.809 44.8536 50.7841 45.0684 50.1864C45.1661 49.9291 45.254 49.7216 45.254 49.7216C45.2638 49.7216 45.6348 49.8295 46.0743 49.9706ZM54.922 50.2362C55.0587 50.5932 55.0587 50.6845 54.9513 50.7758C54.8829 50.8339 54.3263 51.0331 53.711 51.2157C52.9005 51.4565 52.5782 51.5229 52.5489 51.4482C52.5294 51.3901 52.295 51.1659 52.0411 50.9418C51.7774 50.726 51.5626 50.5351 51.5626 50.5185C51.5626 50.5019 51.797 50.4604 52.0802 50.4355C52.627 50.3691 54.0528 50.0204 54.297 49.8876C54.6095 49.7133 54.7559 49.7963 54.922 50.2362ZM65.3907 50.2694C65.5763 50.394 65.7227 50.5185 65.7227 50.56C65.7227 50.6015 65.5079 50.8256 65.2345 51.058L64.7462 51.4814L64.4532 51.2987C64.297 51.1991 64.1602 51.0995 64.1602 51.0746C64.1602 51.0248 64.9708 50.0619 65.0196 50.0619C65.0391 50.0536 65.2052 50.1532 65.3907 50.2694ZM35.5958 50.6845C35.7813 50.9003 35.9376 51.0995 35.9376 51.1327C35.9376 51.1659 35.8302 51.2406 35.6934 51.2987C35.4884 51.3901 35.4298 51.3901 35.3223 51.2987C35.2247 51.2157 35.2345 51.2074 35.3516 51.2572C35.4298 51.2904 35.3907 51.2157 35.2442 51.0829C34.7559 50.6098 34.7364 50.5683 34.8829 50.4355C35.088 50.2279 35.2247 50.2777 35.5958 50.6845ZM43.2618 50.5932L43.545 50.7177L43.2227 51.4897C42.6856 52.7348 42.2071 53.6977 42.0411 53.8554C41.9923 53.8969 40.7325 53.2909 40.6739 53.2079C40.6056 53.1166 42.0997 51.0165 42.461 50.6928C42.754 50.4355 42.8712 50.4189 43.2618 50.5932ZM57.588 50.7426C57.8809 51.0248 59.3751 53.0668 59.3751 53.183C59.3751 53.2992 58.0274 53.9965 57.9395 53.9218C57.8516 53.8554 57.0997 52.328 56.7774 51.5644C56.4454 50.8007 56.4454 50.8007 56.6407 50.6347C56.9337 50.3857 57.2559 50.4272 57.588 50.7426ZM50.6153 51.3319C50.7911 51.3901 51.1036 51.6059 51.2989 51.8051C51.8946 52.3944 51.9532 52.6933 51.9532 55.1752V57.3583H51.67C51.5138 57.3583 51.2598 57.3998 51.1134 57.4413C50.9669 57.4911 50.7716 57.5077 50.6641 57.4828C50.4884 57.433 50.4884 57.3085 50.4884 54.81C50.4981 52.4526 50.4786 52.1786 50.3321 52.0375C50.127 51.8466 49.8243 51.8383 49.5899 52.0209C49.4239 52.1454 49.4141 52.3446 49.4141 54.7851C49.4141 57.1176 49.3946 57.433 49.2579 57.4745C49.0235 57.5492 48.8087 57.5326 48.877 57.4413C48.9161 57.3915 48.7598 57.3583 48.4962 57.3583H48.047L48.0274 56.5448C48.0079 56.1049 48.0177 55.0507 48.0372 54.204C48.0665 52.7182 48.086 52.6518 48.3399 52.2118C48.4864 51.9628 48.6915 51.6889 48.7891 51.6142C49.3067 51.224 50.0098 51.1078 50.6153 51.3319ZM63.8966 52.5107C63.7598 52.6684 63.6231 52.7929 63.5841 52.7929C63.5548 52.7929 63.3497 52.934 63.1348 53.1083C62.6368 53.5151 60.8595 54.6191 60.713 54.6191C60.6837 54.6191 60.5567 54.4779 60.4298 54.3036L60.1759 53.9882L60.9766 53.4818C61.4063 53.1996 62.129 52.685 62.5782 52.3446L63.3888 51.7138L63.7696 51.9711L64.1505 52.2367L63.8966 52.5107ZM37.4806 52.3861C38.1251 52.8925 39.2579 53.6396 39.7364 53.8637C39.8438 53.9218 39.8341 53.9965 39.6485 54.2787C39.4337 54.5942 39.1993 54.7602 39.3067 54.5111C39.336 54.4613 39.2677 54.3617 39.1505 54.2953C38.9649 54.204 38.9454 54.204 38.9942 54.3202C39.0919 54.536 38.9259 54.4779 38.3106 54.0878C37.7931 53.7475 36.9044 53.0253 37.1778 53.1581C37.2364 53.183 37.0606 53.0004 36.7774 52.7514C36.4845 52.5024 36.2013 52.2948 36.1427 52.2948C36.0841 52.2948 36.0352 52.2699 36.0352 52.2367C36.0352 52.1288 36.4649 51.7968 36.6016 51.7968C36.67 51.7968 37.0704 52.0624 37.4806 52.3861ZM25.4884 52.1703C25.8009 52.3114 26.0743 52.6767 26.0743 52.9589C26.0743 53.1996 25.8106 53.5981 25.5958 53.706C25.3028 53.8305 24.5802 53.8056 24.3263 53.6562C24.0333 53.4818 23.8184 53.0419 23.8966 52.7846C24.0821 52.1537 24.8145 51.8715 25.4884 52.1703ZM75.9376 52.411C76.2013 52.6352 76.2696 52.7597 76.2696 53.0253C76.2696 53.5068 75.9571 53.789 75.3614 53.8471C74.9415 53.8886 74.8829 53.872 74.5606 53.5981C74.3067 53.3822 74.2188 53.2411 74.2188 53.0253C74.2286 52.685 74.4141 52.3861 74.7169 52.245C75.1466 52.0458 75.5763 52.1039 75.9376 52.411ZM44.1993 53.5566C44.463 53.6562 45.1368 53.8554 45.7032 54.0048L46.7286 54.2704L46.7579 54.5693C46.7872 54.8432 46.7677 54.8681 46.6114 54.7851C46.5138 54.7436 45.9278 54.5693 45.3126 54.4198C43.9747 54.0795 43.4571 53.8969 43.4571 53.7807C43.4571 53.6894 43.6427 53.3739 43.6915 53.3739C43.711 53.3739 43.9356 53.4569 44.1993 53.5566ZM56.4454 53.706C56.5138 53.8471 56.5528 53.9716 56.5333 53.9799C56.3673 54.0878 54.7852 54.5443 54.1993 54.6606C53.7989 54.7436 53.4083 54.8681 53.3497 54.9345C53.2423 55.0424 53.2227 55.0009 53.2227 54.6772C53.2227 54.2953 53.2227 54.2953 53.6427 54.204C54.2774 54.0629 54.9513 53.872 55.5567 53.6562C56.2598 53.4071 56.2989 53.4071 56.4454 53.706ZM41.3575 54.6606C41.5821 54.8183 41.6114 54.8598 41.4845 54.8681C41.3868 54.8681 41.3087 54.9096 41.3087 54.9677C41.3087 55.0175 41.2794 55.0341 41.2403 55.0092C41.1524 54.9262 40.8985 55.2665 40.9669 55.3661C41.045 55.474 40.9864 55.474 40.6837 55.3578L40.4395 55.2582L40.6837 54.8598C40.8106 54.6357 40.9571 54.453 40.9962 54.453C41.0352 54.453 41.2013 54.5443 41.3575 54.6606ZM59.3848 54.8847C59.5313 55.1337 59.5606 55.2416 59.4727 55.3163C59.3946 55.3827 59.3848 55.3744 59.4239 55.2582C59.4825 55.1503 59.4434 55.1171 59.2384 55.1171C59.0919 55.1171 58.9552 55.1752 58.9161 55.2499C58.8673 55.3495 58.8184 55.3246 58.6622 55.1171L58.4669 54.8515L58.7501 54.6606C58.9063 54.5526 59.0626 54.4862 59.1114 54.5111C59.1505 54.5277 59.2774 54.7021 59.3848 54.8847ZM27.4024 55.4076C27.4708 55.5487 25.2442 57.5658 24.8145 57.7568C24.6095 57.8481 24.5997 57.8398 24.7071 57.7318C24.8048 57.6322 24.8048 57.5824 24.6973 57.4745C24.5899 57.3666 24.7364 57.2089 25.8106 56.3124C26.4845 55.748 27.1095 55.2831 27.1973 55.2831C27.2852 55.2831 27.3731 55.3412 27.4024 55.4076ZM44.5216 55.8808C44.8634 55.9721 45.4981 56.1049 45.9376 56.1879L46.7286 56.329L46.7579 56.7192C46.7872 57.0429 46.7579 57.101 46.6407 57.0595C46.5528 57.0346 46.504 56.9765 46.5333 56.935C46.5626 56.9018 46.4259 56.8437 46.2208 56.8188C45.4884 56.7109 43.9747 56.3456 43.2911 56.0966C42.9005 55.9638 42.5391 55.8725 42.4806 55.9057C42.4317 55.9306 42.4024 55.9057 42.4317 55.8476C42.4513 55.7895 42.5196 55.6401 42.5684 55.5155L42.6661 55.2914L43.2813 55.5072C43.6231 55.6235 44.1798 55.7895 44.5216 55.8808ZM57.5782 55.5819C57.6563 55.748 57.7149 55.8891 57.6954 55.8974C57.422 56.0219 56.8848 56.1962 56.7579 56.1962C56.6602 56.1962 56.5431 56.2294 56.4942 56.2709C56.4356 56.3207 55.9571 56.4452 55.42 56.5614C54.8829 56.6693 54.2677 56.8022 54.0528 56.852L53.6622 56.935L54.1016 56.9018L54.5411 56.8603L54.2481 56.9765C54.0919 57.0429 53.7891 57.1176 53.5938 57.1425L53.2227 57.1923V56.7358C53.2227 56.3124 53.2423 56.2792 53.4571 56.2792C53.8673 56.2792 55.8888 55.8144 56.5919 55.5487C56.9727 55.4159 57.3145 55.2997 57.3536 55.2914C57.3927 55.2831 57.5001 55.4159 57.5782 55.5819ZM74.2188 56.4037C74.8341 56.9267 75.3028 57.3749 75.2638 57.4081C75.1661 57.4994 75.4005 57.6986 75.5274 57.6322C75.586 57.599 75.5763 57.6405 75.4981 57.7235C75.42 57.7983 75.3321 57.8315 75.3028 57.7983C75.2735 57.7651 75.1759 57.7235 75.0977 57.7069C75.0196 57.6903 74.4239 57.2421 73.7891 56.6943C72.9688 56.0053 72.6466 55.6733 72.6856 55.5819C72.8126 55.308 73.1348 55.474 74.2188 56.4037ZM31.5431 56.3207C31.5431 56.6278 31.211 56.7441 30.9571 56.5282C30.7423 56.3456 30.7227 56.2875 30.8399 56.1464C31.045 55.8808 31.5431 55.997 31.5431 56.3207ZM69.2384 56.1547C69.463 56.3871 69.1505 56.7524 68.7989 56.6444C68.4473 56.5282 68.5645 56.0302 68.9454 56.0302C69.043 56.0302 69.17 56.0883 69.2384 56.1547ZM55.9571 56.6029C55.879 56.6444 55.6544 56.6943 55.4688 56.7275L55.127 56.7773L55.4688 56.661C55.8692 56.5199 56.2013 56.4867 55.9571 56.6029ZM55.0489 56.8271C55.0196 56.852 54.9317 56.8603 54.8634 56.8354C54.7852 56.8105 54.8145 56.7856 54.922 56.7856C55.0294 56.7773 55.088 56.8022 55.0489 56.8271ZM29.17 57.3583C29.502 57.4579 29.7852 57.8232 29.7852 58.1635C29.7755 58.6034 29.3751 58.8525 28.6622 58.8525C28.2227 58.8525 28.1837 58.8774 27.5098 59.4584C27.1192 59.7987 26.7188 60.1723 26.6016 60.3051C26.4356 60.496 26.3575 60.5292 26.1427 60.4794C26.0059 60.4545 25.8399 60.3549 25.7813 60.2636C25.6348 60.0229 25.8595 59.6576 26.1817 59.5995C26.3184 59.5746 26.7677 59.3007 27.1778 58.9853C27.8321 58.4789 27.9298 58.371 27.9298 58.1303C27.9298 57.7651 28.0665 57.5575 28.3985 57.4081C28.7208 57.2587 28.7989 57.2504 29.17 57.3583ZM71.543 57.6405C71.9337 57.9726 71.9727 58.2631 71.6798 58.6615C71.338 59.143 70.3712 59.1098 70.0684 58.5951C69.8341 58.2216 69.8829 57.873 70.2052 57.599C70.6153 57.2504 71.1036 57.267 71.543 57.6405ZM50.4884 58.703C50.6544 58.9687 50.5665 59.1596 50.1954 59.3256C49.7169 59.5331 49.2481 59.0351 49.5509 58.6449C49.7852 58.3461 50.2735 58.3793 50.4884 58.703ZM73.8282 59.7655C73.9356 59.8568 74.0235 59.9814 74.0235 60.0395C74.0235 60.2304 73.7208 60.5126 73.5157 60.5126C73.252 60.5126 72.9493 60.2802 72.9493 60.081C72.9493 59.8984 73.2813 59.5995 73.4864 59.5995C73.5645 59.5995 73.7208 59.6742 73.8282 59.7655ZM48.6427 60.0478C48.5548 60.1391 48.5548 60.1723 48.6524 60.2055C48.7208 60.2221 48.7403 60.2719 48.7013 60.3134C48.5743 60.4213 48.4376 60.164 48.5548 60.0395C48.6134 59.9814 48.6817 59.9316 48.7013 59.9316C48.7306 59.9316 48.7013 59.9814 48.6427 60.0478ZM31.6798 60.1474C31.9141 60.3383 31.8653 60.5707 31.5821 60.7367C31.1427 60.9775 30.7032 60.6039 30.9864 60.2304C31.1817 59.9897 31.4552 59.9482 31.6798 60.1474ZM34.3067 60.1889C34.4434 60.3798 34.3165 60.745 34.0821 60.8031C33.6329 60.9276 33.2813 60.3964 33.6134 60.1142C33.7794 59.9731 34.1798 60.0229 34.3067 60.1889ZM36.7384 60.1557C36.836 60.2304 36.9141 60.3466 36.9141 60.413C36.9141 60.5707 36.6309 60.8446 36.4649 60.8446C36.2794 60.8446 36.0352 60.6039 36.0352 60.4296C36.0352 60.2636 36.2794 60.0146 36.4454 60.0146C36.504 60.0146 36.6407 60.0727 36.7384 60.1557ZM49.1895 60.3881C49.1895 60.4794 49.0821 60.5126 48.7891 60.5043C48.5645 60.5043 48.4571 60.4794 48.5352 60.4545C48.6134 60.4296 48.7403 60.3632 48.8184 60.3134C48.9259 60.247 48.9454 60.247 48.8868 60.3217C48.838 60.3964 48.8673 60.413 48.9845 60.3715C49.1212 60.33 49.1212 60.3134 48.9356 60.2221C48.8184 60.1723 48.7598 60.1059 48.7891 60.0727C48.8868 59.9897 49.1895 60.2304 49.1895 60.3881ZM64.1212 60.2221C64.2677 60.413 64.2677 60.4462 64.1212 60.6371C63.9356 60.8778 63.711 60.9027 63.4571 60.7035C63.2423 60.5375 63.2325 60.4379 63.4376 60.1972C63.6329 59.9565 63.9259 59.9648 64.1212 60.2221ZM66.4845 60.1142C66.67 60.2719 66.6309 60.662 66.4161 60.7616C66.1329 60.8861 66.0352 60.8695 65.8595 60.6371C65.713 60.4462 65.713 60.413 65.8595 60.2221C66.0352 59.998 66.2989 59.9565 66.4845 60.1142ZM68.9845 60.1474C69.1895 60.3134 69.1798 60.5043 68.9747 60.6952C68.7794 60.8778 68.6134 60.8861 68.418 60.7118C68.213 60.5375 68.2227 60.2055 68.4376 60.1059C68.672 59.9814 68.8087 59.998 68.9845 60.1474ZM79.8634 64.4306C79.8536 64.6049 79.2579 65.8251 79.1798 65.8251C79.1602 65.8251 79.1407 65.6508 79.1309 65.4267C79.1114 65.1195 79.1309 65.078 79.1993 65.2192C79.297 65.4267 79.4532 65.4848 79.3555 65.2773C79.3263 65.2109 79.336 65.1776 79.3946 65.2026C79.4434 65.2275 79.5118 65.1444 79.5509 65.0199C79.5899 64.8954 79.6583 64.746 79.7071 64.6962C79.7559 64.6381 79.7852 64.5634 79.7755 64.5302C79.7559 64.414 79.7852 64.248 79.8243 64.248C79.8536 64.248 79.8634 64.331 79.8634 64.4306ZM79.5899 64.4887C79.5899 64.5385 79.5509 64.5966 79.4923 64.6215C79.4434 64.6464 79.3946 64.6132 79.3946 64.5468C79.3946 64.4721 79.4434 64.414 79.4923 64.414C79.5509 64.414 79.5899 64.4472 79.5899 64.4887Z" fill="#00FF2B"/>
<path d="M49.3259 13.4964C48.7205 13.6292 48.3787 13.8201 47.9197 14.2767C47.0896 15.1068 47.1873 16.5096 48.1345 17.3231C49.4724 18.4603 51.8064 18.012 52.49 16.493C52.7341 15.9368 52.656 15.0819 52.3142 14.5838C51.6892 13.679 50.4783 13.2391 49.3259 13.4964ZM50.7615 14.7083C51.2205 14.9491 51.3963 15.2894 51.3474 15.8289C51.2205 17.0741 49.3748 17.3563 48.7205 16.2191C48.4373 15.7044 48.5056 15.2645 48.9353 14.8826C49.4724 14.4178 50.0877 14.3597 50.7615 14.7083Z" fill="#00FF2B"/>
<path d="M45.9958 16.3529C46.2595 16.6766 46.3278 16.6766 46.113 16.3529C46.0251 16.2201 45.9079 16.1039 45.8688 16.1039C45.82 16.1039 45.8786 16.2118 45.9958 16.3529Z" fill="#00FF2B"/>
<path d="M46.2391 16.8587C46.2098 16.8919 46.2586 16.9085 46.3367 16.9002C46.5418 16.8753 46.6102 16.7923 46.4344 16.7923C46.3465 16.7923 46.2586 16.8255 46.2391 16.8587Z" fill="#00FF2B"/>
<path d="M53.3203 17.0502C53.3203 17.0668 53.3984 17.1332 53.4961 17.1913C53.6426 17.2992 53.6523 17.2909 53.5254 17.1581C53.3984 17.0253 53.3203 16.9838 53.3203 17.0502Z" fill="#00FF2B"/>
<path d="M52.9015 17.3325C52.755 17.4653 52.755 17.4902 52.882 17.4902C52.9601 17.4902 53.0089 17.4653 52.9796 17.4487C52.9503 17.4238 52.9796 17.3574 53.0382 17.291C53.2042 17.125 53.087 17.1582 52.9015 17.3325Z" fill="#00FF2B"/>
<path d="M47.3047 17.6815C47.3047 17.7894 47.3437 17.8143 47.4023 17.7645C47.4707 17.7064 47.4707 17.6565 47.4023 17.5984C47.3437 17.5486 47.3047 17.5735 47.3047 17.6815Z" fill="#00FF2B"/>
<path d="M52.832 17.7142C52.832 17.7308 52.9102 17.7972 53.0078 17.8553C53.1543 17.9633 53.1641 17.955 53.0371 17.8221C52.9102 17.6893 52.832 17.6478 52.832 17.7142Z" fill="#00FF2B"/>
<path d="M47.5111 17.8467C47.4818 17.8882 47.5111 17.9048 47.5893 17.8799C47.6674 17.855 47.7846 17.8965 47.8529 17.9712C47.9213 18.0376 48.019 18.0957 48.0776 18.0957C48.1264 18.0957 48.058 18.021 47.9213 17.9297C47.6381 17.7388 47.599 17.7305 47.5111 17.8467Z" fill="#00FF2B"/>
<path d="M48.1445 18.2695C48.1445 18.3111 48.1934 18.3277 48.2422 18.3028C48.3008 18.2779 48.3398 18.2363 48.3398 18.2114C48.3398 18.1948 48.3008 18.1782 48.2422 18.1782C48.1934 18.1782 48.1445 18.2197 48.1445 18.2695Z" fill="#00FF2B"/>
<path d="M48.4862 18.2618C48.5155 18.3116 48.496 18.3448 48.4277 18.3448C48.3593 18.3448 48.33 18.3697 48.3691 18.3946C48.3984 18.4195 48.496 18.4112 48.5839 18.3614C48.7402 18.295 48.7402 18.2867 48.5937 18.2369C48.496 18.2037 48.4472 18.212 48.4862 18.2618Z" fill="#00FF2B"/>
<path d="M51.3854 18.2525C51.278 18.3023 51.2878 18.3356 51.4245 18.3771C51.5124 18.402 51.61 18.4103 51.6393 18.3854C51.6686 18.3605 51.6296 18.3439 51.5515 18.3439C51.444 18.3439 51.444 18.3272 51.5612 18.2608C51.6393 18.2193 51.6686 18.1778 51.61 18.1778C51.5612 18.1778 51.4538 18.211 51.3854 18.2525Z" fill="#00FF2B"/>
<path d="M46.338 18.3447C46.3673 18.3862 46.4161 18.4277 46.4454 18.4277C46.4649 18.4277 46.4845 18.3862 46.4845 18.3447C46.4845 18.2949 46.4356 18.2617 46.377 18.2617C46.3282 18.2617 46.3087 18.2949 46.338 18.3447Z" fill="#00FF2B"/>
<path d="M46.6894 18.3951C46.6894 18.4864 46.7187 18.5113 46.7479 18.4449C46.7771 18.3868 46.7674 18.3121 46.7381 18.2872C46.7089 18.254 46.6797 18.3038 46.6894 18.3951Z" fill="#00FF2B"/>
<path d="M51.9544 18.3447C52.0325 18.3862 52.1497 18.4277 52.1985 18.4277C52.2571 18.4277 52.2278 18.3862 52.1497 18.3447C52.0715 18.3032 51.9641 18.2617 51.9055 18.2617C51.8567 18.2617 51.8762 18.3032 51.9544 18.3447Z" fill="#00FF2B"/>
<path d="M49.1708 18.5104C49.5614 18.5852 50.5575 18.6184 50.4794 18.5603C50.4599 18.5437 50.0692 18.5104 49.6103 18.4855C49.0341 18.4606 48.8974 18.4606 49.1708 18.5104Z" fill="#00FF2B"/>
<path d="M50.6652 18.4855C50.7336 18.5095 50.8215 18.5015 50.8508 18.4775C50.8898 18.4534 50.8312 18.4294 50.7238 18.4374C50.6164 18.4374 50.5871 18.4615 50.6652 18.4855Z" fill="#00FF2B"/>
<path d="M51.7578 18.46C51.7578 18.4766 51.8262 18.5181 51.9141 18.543C51.9922 18.5679 52.0312 18.5596 52.002 18.5098C51.9434 18.4268 51.7578 18.3936 51.7578 18.46Z" fill="#00FF2B"/>
<path d="M47.4419 18.9331C47.2173 19.041 47.2173 19.1406 47.4419 19.1406C47.5396 19.1406 47.6177 19.0742 47.6177 18.9912C47.6177 18.9082 47.6177 18.8418 47.6079 18.8418C47.6079 18.8418 47.5298 18.8833 47.4419 18.9331Z" fill="#00FF2B"/>
<path d="M48.4959 19.2406C48.4374 19.3236 49.0819 19.3153 49.1795 19.2323C49.2186 19.1991 49.0916 19.1742 48.8963 19.1742C48.701 19.1742 48.5252 19.2074 48.4959 19.2406Z" fill="#00FF2B"/>
<path d="M51.6403 19.3571C51.6891 19.3986 51.7965 19.4235 51.8649 19.4069C51.943 19.382 51.8942 19.3488 51.7672 19.3156C51.6012 19.2824 51.5621 19.2907 51.6403 19.3571Z" fill="#00FF2B"/>
<path d="M49.0534 19.4405C49.0632 19.4986 48.946 19.565 48.78 19.5899C48.5359 19.6314 48.5163 19.648 48.6824 19.6895C48.7898 19.7144 48.946 19.7642 49.0241 19.7891C49.1316 19.8306 49.1804 19.7808 49.1902 19.5899C49.1999 19.4571 49.1706 19.3409 49.1218 19.3409C49.0632 19.3409 49.0339 19.3824 49.0534 19.4405Z" fill="#00FF2B"/>
<path d="M48.5151 19.4821C48.5736 19.4981 48.6908 19.4981 48.7592 19.4821C48.8178 19.4581 48.769 19.4421 48.6322 19.4421C48.4955 19.4421 48.4467 19.4581 48.5151 19.4821Z" fill="#00FF2B"/>
<path d="M51.6205 19.582C51.5814 19.6236 51.6498 19.6402 51.7572 19.6153C51.9818 19.5654 52.0111 19.5073 51.8158 19.5073C51.7377 19.5073 51.6498 19.5405 51.6205 19.582Z" fill="#00FF2B"/>
<path d="M50.8801 19.6729C50.802 19.7144 50.7825 19.7559 50.8313 19.7559C50.8899 19.7559 50.9973 19.7144 51.0754 19.6729C51.1536 19.6313 51.1829 19.5898 51.1243 19.5898C51.0754 19.5898 50.9583 19.6313 50.8801 19.6729Z" fill="#00FF2B"/>
<path d="M26.7393 18.652C26.8565 18.6681 27.0518 18.6681 27.1788 18.652C27.296 18.636 27.1983 18.62 26.9542 18.62C26.71 18.62 26.6124 18.636 26.7393 18.652Z" fill="#00FF2B"/>
<path d="M38.4581 18.652C38.5753 18.6681 38.7706 18.6681 38.8975 18.652C39.0147 18.636 38.9171 18.62 38.6729 18.62C38.4288 18.62 38.3311 18.636 38.4581 18.652Z" fill="#00FF2B"/>
<path d="M40.0206 18.652C40.1378 18.6681 40.3331 18.6681 40.46 18.652C40.5772 18.636 40.4796 18.62 40.2354 18.62C39.9913 18.62 39.8936 18.636 40.0206 18.652Z" fill="#00FF2B"/>
<path d="M58.8658 18.652C58.983 18.6681 59.1588 18.6681 59.2565 18.652C59.3443 18.628 59.2467 18.612 59.0318 18.62C58.817 18.62 58.7389 18.636 58.8658 18.652Z" fill="#00FF2B"/>
<path d="M23.0367 19.7303C22.9097 19.8632 22.9195 19.8715 23.0757 19.7635C23.1636 19.7054 23.2418 19.639 23.2418 19.6224C23.2418 19.556 23.1636 19.5975 23.0367 19.7303Z" fill="#00FF2B"/>
<path d="M77.9297 22.2451C77.9297 22.2866 77.9785 22.3281 78.0371 22.3281C78.0859 22.3281 78.1055 22.2866 78.0762 22.2451C78.0469 22.1953 77.998 22.1621 77.9687 22.1621C77.9492 22.1621 77.9297 22.1953 77.9297 22.2451Z" fill="#00FF2B"/>
<path d="M78.9075 41.5029C78.9856 41.5444 79.1028 41.5859 79.1516 41.5859C79.2102 41.5859 79.1809 41.5444 79.1028 41.5029C79.0247 41.4614 78.9172 41.4199 78.8587 41.4199C78.8098 41.4199 78.8294 41.4614 78.9075 41.5029Z" fill="#00FF2B"/>
<path d="M79.8828 41.9189C79.8828 41.9604 79.9316 42.002 79.9805 42.002C80.0391 42.002 80.0781 41.9604 80.0781 41.9189C80.0781 41.8691 80.0391 41.8359 79.9805 41.8359C79.9316 41.8359 79.8828 41.8691 79.8828 41.9189Z" fill="#00FF2B"/>
<path d="M19.8339 63.0533C19.8339 63.1446 19.8632 63.1695 19.8924 63.1031C19.9217 63.045 19.9119 62.9703 19.8827 62.9454C19.8534 62.9122 19.8242 62.962 19.8339 63.0533Z" fill="#00FF2B"/>
<path d="M20.1172 62.9282C20.1172 63.0112 20.5078 63.75 20.5664 63.75C20.5859 63.75 20.5469 63.6172 20.4688 63.4595C20.3027 63.1274 20.127 62.8535 20.1172 62.9282Z" fill="#00FF2B"/>
<path d="M19.9518 63.6253C19.9518 63.8079 19.9712 63.8743 19.9907 63.7664C20.0102 63.6668 20.0102 63.5174 19.9907 63.4344C19.9615 63.3596 19.942 63.4427 19.9518 63.6253Z" fill="#00FF2B"/>
<path d="M20.1674 63.7586C20.1283 63.8084 20.1283 63.8665 20.1576 63.8914C20.1869 63.9246 20.2162 63.8997 20.2162 63.8416C20.2162 63.7835 20.265 63.7669 20.3334 63.8001C20.4017 63.8333 20.4115 63.825 20.3724 63.7669C20.2846 63.6424 20.2455 63.6424 20.1674 63.7586Z" fill="#00FF2B"/>
<path d="M49.4941 65.4507L49.4648 66.8203H49.9238H50.3828L50.4121 66.1729C50.4414 65.5503 50.4512 65.5337 50.6855 65.5337C50.9199 65.5337 50.9297 65.5503 50.959 66.1729L50.9883 66.8203H51.418H51.8574V66.0815C51.8574 65.4009 51.8379 65.3179 51.6035 65.0854C51.3398 64.8198 50.9492 64.7451 50.5977 64.9028C50.4414 64.9775 50.4316 64.9443 50.4707 64.5293L50.5098 64.0811H50.0215H49.5234L49.4941 65.4507Z" fill="#00FF2B"/>
<path d="M52.2461 65.4507V66.8203H52.6758H53.0957L53.1641 66.1812C53.2324 65.542 53.3301 65.3843 53.584 65.4673C53.6719 65.5005 53.7109 65.6914 53.7109 66.1646V66.8203H54.1406H54.5605L54.6094 66.4136C54.6387 66.1978 54.6289 65.8159 54.5898 65.5752C54.502 64.9775 54.2383 64.7949 53.584 64.8613L53.1055 64.9028L53.1738 64.4961L53.2422 64.0811H52.7441H52.2461V65.4507Z" fill="#00FF2B"/>
<path d="M58.4944 64.3231C58.4944 64.7547 58.4163 64.8294 57.9378 64.8294C57.5765 64.8294 57.5081 64.8543 57.5569 64.9623C57.5862 65.037 57.6155 65.4852 57.6155 65.9583V66.8216H58.055H58.4847L58.5237 66.2572L58.553 65.701L58.5725 66.2572L58.5921 66.8216L59.1097 66.8299C60.2132 66.8465 60.4866 66.7718 60.8089 66.3568C61.3069 65.701 60.6526 64.7381 59.7835 64.846C59.4222 64.8875 59.3636 64.7962 59.4417 64.3812L59.5003 64.0824H58.9925C58.5042 64.0824 58.4944 64.0907 58.4944 64.3231ZM59.9397 65.5101C60.1741 65.7093 60.0472 66.2406 59.7737 66.2406C59.3831 66.2406 59.2464 65.8338 59.5393 65.5599C59.7249 65.3856 59.7835 65.3773 59.9397 65.5101Z" fill="#00FF2B"/>
<path d="M46.1441 64.3646C45.8512 64.4476 45.7437 64.5224 45.7242 64.6718C45.7047 64.7797 45.6266 64.9042 45.5484 64.9374C45.3629 65.0287 45.3727 65.3275 45.5582 65.3275C45.6656 65.3275 45.7047 65.4354 45.7145 65.7592C45.7242 65.9999 45.7535 66.2904 45.7926 66.4066C45.8805 66.6806 46.3687 66.8798 46.818 66.8383C47.1598 66.8051 47.1793 66.7885 47.15 66.5477C47.1305 66.3485 47.0621 66.2738 46.8766 66.2406C46.691 66.2074 46.6227 66.1327 46.6031 65.9335C46.5641 65.5766 46.7398 65.3026 46.9742 65.3524C47.1695 65.3939 47.2574 65.2362 47.1891 64.9789C47.1598 64.871 47.0816 64.8461 46.9156 64.8793C46.7008 64.9291 46.6812 64.9042 46.6812 64.5888C46.6812 64.3978 46.652 64.2484 46.6129 64.2567C46.5641 64.265 46.359 64.3148 46.1441 64.3646Z" fill="#00FF2B"/>
<path d="M20.2654 64.4058C20.2947 64.4473 20.2751 64.4971 20.2166 64.5137C20.158 64.5303 20.1775 64.6714 20.2751 64.8872C20.3728 65.0864 20.4802 65.2193 20.5388 65.1861C20.6072 65.1529 20.6169 65.1944 20.5779 65.294C20.5095 65.4434 20.5193 65.4434 20.656 65.2857C20.7927 65.1445 20.822 65.1362 20.9001 65.2442C20.949 65.3106 20.9978 65.4019 20.9978 65.4434C20.9978 65.4849 21.0271 65.5015 21.0564 65.4766C21.1638 65.3853 20.8904 65.0698 20.7244 65.0947C20.5974 65.1113 20.5486 65.0449 20.5291 64.771C20.5095 64.5635 20.4412 64.4141 20.3533 64.3809C20.2751 64.356 20.2263 64.3643 20.2654 64.4058Z" fill="#00FF2B"/>
<path d="M38.9845 64.9292C39.0138 64.9873 39.1994 65.4355 39.4045 65.9253L39.7853 66.8218H40.2345H40.6838L40.8205 66.2822C40.967 65.6929 41.0256 65.7095 41.2111 66.3901L41.3283 66.8301L41.7677 66.8052C42.1681 66.7803 42.217 66.7554 42.3342 66.4897C42.4025 66.332 42.5881 65.8921 42.7443 65.5103L43.0373 64.8296H42.5685C42.2853 64.8296 42.09 64.8711 42.09 64.9209C42.09 64.9707 42.0217 65.2197 41.9338 65.4771C41.7482 66 41.6799 65.9502 41.5529 65.2114L41.4845 64.8296H41.0256H40.5666L40.4396 65.3359C40.3029 65.9253 40.1955 65.9004 40.0197 65.2612L39.8927 64.8296H39.424C39.0822 64.8296 38.9552 64.8628 38.9845 64.9292Z" fill="#00FF2B"/>
<path d="M43.4388 64.8863C43.2533 64.9278 43.1166 65.1934 43.2142 65.3263C43.2533 65.3844 43.4681 65.3927 43.7611 65.3595C44.142 65.318 44.2396 65.3263 44.2396 65.4259C44.2396 65.5089 44.1615 65.5338 43.9759 65.5172C43.8002 65.4923 43.5755 65.5504 43.3607 65.6749C42.931 65.9239 42.8334 66.3722 43.1556 66.6461C43.39 66.8453 44.0248 66.8868 44.2298 66.7125C44.3373 66.6295 44.3666 66.6295 44.4056 66.7125C44.4349 66.7789 44.6205 66.8204 44.8353 66.8204H45.2162V66.1148C45.2162 65.3346 45.1088 65.0523 44.7572 64.9195C44.5326 64.8282 43.7709 64.8116 43.4388 64.8863ZM44.3177 66.0899C44.2884 66.2975 44.0736 66.3639 43.849 66.2393C43.722 66.1646 43.7318 66.1397 43.888 66.0318C44.1713 65.8492 44.3568 65.8741 44.3177 66.0899Z" fill="#00FF2B"/>
<path d="M47.793 64.9526C47.4219 65.1187 47.2656 65.3843 47.2656 65.874C47.2656 66.1978 47.3145 66.2974 47.5977 66.5381C47.8809 66.7788 47.998 66.8203 48.4082 66.8203C49.1895 66.8203 49.5703 66.4717 49.082 66.1978C48.8867 66.0898 48.8086 66.0815 48.6523 66.1646C48.2715 66.3638 47.998 65.957 48.2422 65.5669C48.3594 65.3926 48.6328 65.3594 48.7891 65.4922C48.8574 65.5503 48.9648 65.5088 49.1211 65.3677C49.3359 65.1768 49.3457 65.1436 49.1992 65.019C48.9746 64.8281 48.1641 64.7949 47.793 64.9526Z" fill="#00FF2B"/>
<path d="M54.9805 65.6005C54.9805 66.1733 55.0195 66.414 55.1367 66.5551C55.3418 66.8124 55.7031 66.9203 56.0059 66.8207C56.1328 66.7792 56.2598 66.7709 56.2891 66.8041C56.3086 66.8373 56.5527 66.8456 56.8262 66.8373C57.3145 66.8041 57.3242 66.8041 57.3242 66.5302C57.3242 66.3725 57.2754 66.2231 57.2168 66.1899C57.1387 66.1567 57.1191 65.9159 57.1484 65.4843L57.1973 64.8285H56.7188H56.25V65.5341C56.25 65.9242 56.2305 66.2397 56.2109 66.2397C55.918 66.2397 55.8594 66.1068 55.8594 65.4843V64.8285H55.4199H54.9805V65.6005Z" fill="#00FF2B"/>
<path d="M26.5626 65.0781C25.9962 65.1943 25.9279 65.8833 26.465 66.1157C27.1095 66.398 27.7247 65.792 27.2951 65.269C27.129 65.0698 26.8947 65.0034 26.5626 65.0781Z" fill="#00FF2B"/>
<path d="M28.8101 65.2442C28.478 65.5265 28.5659 65.9249 29.0151 66.1158C29.4741 66.3233 29.9819 66.0577 29.9819 65.6095C29.9819 65.128 29.23 64.8873 28.8101 65.2442Z" fill="#00FF2B"/>
<path d="M31.4453 65.2439C31.3379 65.3352 31.25 65.5012 31.25 65.6174C31.25 65.8333 31.543 66.1487 31.7676 66.1653C32.2656 66.2068 32.6172 65.9661 32.6172 65.5759C32.6172 65.1194 31.8555 64.8953 31.4453 65.2439Z" fill="#00FF2B"/>
<path d="M34.0616 65.2182C33.7295 65.5337 33.837 65.9985 34.2764 66.1562C34.5206 66.2392 34.6084 66.2392 34.8135 66.123C34.9502 66.04 35.1163 65.8906 35.1749 65.7744C35.4288 65.3095 34.462 64.8364 34.0616 65.2182Z" fill="#00FF2B"/>
<path d="M65.0391 65.2597C64.6973 65.5751 64.8242 65.9736 65.332 66.1562C65.6055 66.2475 65.6641 66.2475 65.8984 66.0981C66.2207 65.8906 66.2988 65.4672 66.0547 65.2348C65.8203 65.019 65.293 65.0273 65.0391 65.2597Z" fill="#00FF2B"/>
<path d="M67.7037 65.2023C67.3814 65.3932 67.401 65.8415 67.733 66.0656C68.0553 66.2814 68.2604 66.2814 68.524 66.0739C68.817 65.8498 68.8756 65.6174 68.7291 65.3517C68.5729 65.0695 68.0455 64.9948 67.7037 65.2023Z" fill="#00FF2B"/>
<path d="M70.274 65.2602C70.0494 65.5258 70.0787 65.7998 70.3619 66.0322C70.6549 66.2812 70.8893 66.2895 71.2311 66.0654C71.5436 65.8579 71.5826 65.4262 71.3092 65.2187C71.0357 65.0112 70.4596 65.0361 70.274 65.2602Z" fill="#00FF2B"/>
<path d="M72.8238 65.227C72.5698 65.4677 72.6089 65.8662 72.9116 66.0654C73.2534 66.2895 73.4878 66.2812 73.7808 66.0322C74.0738 65.7915 74.1031 65.4096 73.8491 65.2187C73.605 65.0278 73.0191 65.0361 72.8238 65.227Z" fill="#00FF2B"/>
<path d="M21.045 65.7412C21.0743 65.7827 21.1231 65.8242 21.1524 65.8242C21.172 65.8242 21.1915 65.7827 21.1915 65.7412C21.1915 65.6914 21.1427 65.6582 21.0841 65.6582C21.0352 65.6582 21.0157 65.6914 21.045 65.7412Z" fill="#00FF2B"/>
<path d="M78.4849 65.8343C78.5434 65.8841 78.5727 65.9837 78.5434 66.0584C78.5044 66.1414 78.5239 66.1663 78.5923 66.1248C78.7485 66.0501 78.6899 65.743 78.5239 65.743C78.4165 65.743 78.4067 65.7679 78.4849 65.8343Z" fill="#00FF2B"/>
<path d="M78.8183 65.8756C78.8183 65.9669 78.8476 65.9918 78.8768 65.9254C78.906 65.8673 78.8963 65.7926 78.8671 65.7677C78.8378 65.7345 78.8086 65.7843 78.8183 65.8756Z" fill="#00FF2B"/>
<path d="M23.3027 66.3062C23.2734 66.3477 23.3125 66.3809 23.3906 66.3809C23.4687 66.3809 23.5078 66.3477 23.4785 66.3062C23.4492 66.2729 23.4101 66.2397 23.3906 66.2397C23.3711 66.2397 23.332 66.2729 23.3027 66.3062Z" fill="#00FF2B"/>
<path d="M21.5321 66.4805C21.5028 66.522 21.5126 66.5801 21.5614 66.605C21.6102 66.6299 21.6493 66.5967 21.6493 66.5303C21.6493 66.3892 21.62 66.3726 21.5321 66.4805Z" fill="#00FF2B"/>
<path d="M75.9757 66.5713C75.8488 66.6377 75.8488 66.6543 75.9952 66.6543C76.0831 66.6543 76.1906 66.6128 76.2199 66.5713C76.298 66.4634 76.171 66.4634 75.9757 66.5713Z" fill="#00FF2B"/>
<path d="M75.4387 66.7378C75.3118 66.7876 75.2922 66.8125 75.3899 66.8125C75.468 66.8125 75.6047 66.7793 75.6829 66.7378C75.8586 66.6382 75.7024 66.6382 75.4387 66.7378Z" fill="#00FF2B"/>
<path d="M77.7358 66.7794C77.5502 66.9703 77.6576 66.9869 77.8725 66.8126C77.9799 66.7213 78.019 66.6549 77.9604 66.6549C77.9018 66.6549 77.8041 66.713 77.7358 66.7794Z" fill="#00FF2B"/>
<path d="M76.5625 66.9043C76.5625 67.0288 76.6309 67.0703 76.8164 67.0703C77.1094 67.0703 77.0898 66.9126 76.7773 66.813C76.6016 66.7549 76.5625 66.7715 76.5625 66.9043Z" fill="#00FF2B"/>
<path d="M74.5137 66.9541L73.9766 67.0703L74.4453 67.0288C74.709 67.0039 74.9922 66.9541 75.0801 66.9043C75.2852 66.8047 75.1973 66.813 74.5137 66.9541Z" fill="#00FF2B"/>
<path d="M75.7309 67.061C75.7602 67.1108 75.9457 67.1523 76.141 67.1523C76.5707 67.1523 76.5414 67.1108 76.0434 67.0361C75.7797 66.9946 75.682 67.0029 75.7309 67.061Z" fill="#00FF2B"/>
<path d="M22.6162 67.1698C22.6455 67.203 22.7236 67.2113 22.8017 67.1781C23.0068 67.12 22.9873 67.0785 22.7627 67.0951C22.6552 67.0951 22.5869 67.1366 22.6162 67.1698Z" fill="#00FF2B"/>
<path d="M73.4375 67.1533C73.4375 67.1948 73.4961 67.2363 73.5742 67.2363C73.6523 67.2363 73.75 67.1948 73.7793 67.1533C73.8086 67.1035 73.75 67.0703 73.6426 67.0703C73.5254 67.0703 73.4375 67.1035 73.4375 67.1533Z" fill="#00FF2B"/>
<path d="M29.8643 67.2126C29.9815 67.2286 30.1768 67.2286 30.3038 67.2126C30.421 67.1966 30.3233 67.1805 30.0792 67.1805C29.835 67.1805 29.7374 67.1966 29.8643 67.2126Z" fill="#00FF2B"/>
<path d="M35.9194 67.2124C37.2182 67.2287 39.3471 67.2287 40.6557 67.2124C41.9545 67.2042 40.8901 67.1961 38.2827 67.1961C35.6752 67.1961 34.6108 67.2042 35.9194 67.2124Z" fill="#00FF2B"/>
<path d="M44.5135 67.2124C44.953 67.2287 45.6757 67.2287 46.1249 67.2124C46.5643 67.2042 46.203 67.1879 45.3143 67.1879C44.4257 67.1879 44.0643 67.2042 44.5135 67.2124Z" fill="#00FF2B"/>
<path d="M48.4169 67.2124C48.8661 67.2287 49.5692 67.2287 49.9794 67.2124C50.3895 67.2042 50.0282 67.1879 49.1688 67.1879C48.3094 67.1879 47.9676 67.2042 48.4169 67.2124Z" fill="#00FF2B"/>
<path d="M50.801 67.1947C50.8596 67.2528 66.3283 67.2528 66.3869 67.1947C66.4162 67.1698 62.9103 67.1532 58.5939 67.1532C54.2775 67.1532 50.7717 67.1698 50.801 67.1947Z" fill="#00FF2B"/>
<path d="M75 67.5259C75 67.5923 75.0391 67.6504 75.0879 67.6504C75.1367 67.6504 75.2246 67.5923 75.293 67.5259C75.3906 67.418 75.3809 67.4014 75.2051 67.4014C75.0879 67.4014 75 67.4512 75 67.5259Z" fill="#00FF2B"/>
<path d="M75.7808 67.8175C75.9761 67.9254 76.2007 67.9254 76.1226 67.8175C76.0933 67.7677 75.9663 67.7345 75.8491 67.7345C75.6734 67.7345 75.6636 67.7511 75.7808 67.8175Z" fill="#00FF2B"/>
<path d="M74.9043 67.9835C75.0214 68.0499 75.0214 68.0665 74.914 68.0665C74.8359 68.0665 74.7968 68.0831 74.8261 68.108C74.8554 68.1329 74.9531 68.1246 75.041 68.0997C75.1777 68.0582 75.1875 68.025 75.08 67.9752C75.0117 67.9337 74.914 67.9005 74.8554 67.9005C74.8066 67.9005 74.8261 67.942 74.9043 67.9835Z" fill="#00FF2B"/>
<path d="M75.3723 67.9581C75.4406 67.9822 75.5285 67.9742 75.5578 67.9501C75.5969 67.9261 75.5383 67.9021 75.4309 67.9101C75.3234 67.9101 75.2941 67.9341 75.3723 67.9581Z" fill="#00FF2B"/>
<path d="M46.2891 20.8438C46.2891 20.8853 46.3379 20.9019 46.3867 20.877C46.4453 20.8521 46.4844 20.8106 46.4844 20.7857C46.4844 20.7691 46.4453 20.7525 46.3867 20.7525C46.3379 20.7525 46.2891 20.794 46.2891 20.8438Z" fill="#00FF2B"/>
<path d="M38.4379 23.5068C38.0864 23.9302 38.3598 24.4863 38.9262 24.4863C39.5414 24.4863 39.8539 23.9468 39.4926 23.5068C39.3852 23.374 39.2485 23.3242 38.9653 23.3242C38.6821 23.3242 38.5454 23.374 38.4379 23.5068Z" fill="#00FF2B"/>
<path d="M60.6172 23.4653C60.1777 23.8887 60.4512 24.4863 61.086 24.4863C61.3301 24.4863 61.4668 24.4282 61.6231 24.2622C61.9844 23.8721 61.6621 23.3242 61.086 23.3242C60.9102 23.3242 60.7051 23.3906 60.6172 23.4653Z" fill="#00FF2B"/>
<path d="M27.5506 40.8064C27.3064 41.0721 27.2967 41.1883 27.492 41.5037C27.7654 41.9602 28.4881 41.9353 28.7517 41.4622C29.0154 41.0057 28.7127 40.5906 28.117 40.5906C27.8338 40.5906 27.7068 40.6404 27.5506 40.8064Z" fill="#00FF2B"/>
<path d="M71.5045 40.6481C71.4361 40.673 71.319 40.7975 71.2311 40.9304C71.1139 41.1379 71.1041 41.2126 71.2115 41.3952C71.5045 41.9099 72.2272 41.9597 72.5201 41.4948C72.7936 41.0383 72.5006 40.5817 71.944 40.5983C71.7682 40.5983 71.5729 40.6232 71.5045 40.6481Z" fill="#00FF2B"/>
<path d="M37.492 55.8066C37.5506 55.873 37.5603 55.956 37.5213 55.9892C37.4822 56.0307 37.5115 56.0307 37.5799 55.9975C37.6775 55.9477 37.6775 55.9062 37.5896 55.8149C37.531 55.7485 37.4529 55.6987 37.4334 55.6987C37.4041 55.6987 37.4334 55.7485 37.492 55.8066Z" fill="#00FF2B"/>
<path d="M39.989 57.1914C40.0867 57.2827 40.1844 57.3574 40.2039 57.3574C40.2234 57.3574 40.1941 57.2827 40.1355 57.1914C40.0769 57.1001 39.9793 57.0254 39.9207 57.0254C39.8621 57.0254 39.8914 57.1001 39.989 57.1914Z" fill="#00FF2B"/>
<path d="M36.8477 57.2332C36.8477 57.2996 36.8867 57.3328 36.9258 57.3079C37.043 57.2498 37.4238 57.4324 37.3555 57.5237C37.3262 57.5652 37.3457 57.615 37.3945 57.6399C37.4434 57.6731 37.4727 57.6233 37.4629 57.5486C37.4238 57.3494 36.8477 57.0506 36.8477 57.2332Z" fill="#00FF2B"/>
<path d="M59.1809 57.6064C59.1028 57.6479 59.0833 57.6895 59.1321 57.6895C59.1907 57.6895 59.2981 57.6479 59.3762 57.6064C59.4544 57.5649 59.4837 57.5234 59.4251 57.5234C59.3762 57.5234 59.259 57.5649 59.1809 57.6064Z" fill="#00FF2B"/>
<path d="M56.9335 58.1885C56.8456 58.2383 56.8359 58.2715 56.9042 58.2715C56.9628 58.2715 57.0507 58.23 57.08 58.1885C57.1581 58.0889 57.1191 58.0889 56.9335 58.1885Z" fill="#00FF2B"/>
<path d="M44.0434 58.521C44.1215 58.5625 44.2582 58.5957 44.3364 58.5957C44.434 58.5957 44.4145 58.5708 44.2875 58.521C44.0239 58.4214 43.8676 58.4214 44.0434 58.521Z" fill="#00FF2B"/>
<path d="M39.9426 58.6025C40.0208 58.644 40.1379 58.6855 40.1868 58.6855C40.2454 58.6855 40.2161 58.644 40.1379 58.6025C40.0598 58.561 39.9524 58.5195 39.8938 58.5195C39.845 58.5195 39.8645 58.561 39.9426 58.6025Z" fill="#00FF2B"/>
<path d="M44.4518 58.7604C44.3444 58.8102 44.3542 58.8434 44.4909 58.8849C44.5788 58.9098 44.6765 58.9181 44.7058 58.8932C44.735 58.8683 44.7058 58.8517 44.6374 58.8517C44.569 58.8517 44.5495 58.8102 44.5788 58.7687C44.6472 58.669 44.6179 58.669 44.4518 58.7604Z" fill="#00FF2B"/>
<path d="M45.5871 58.8273C45.6555 58.8513 45.7434 58.8433 45.7727 58.8193C45.8117 58.7952 45.7531 58.7712 45.6457 58.7792C45.5383 58.7792 45.509 58.8033 45.5871 58.8273Z" fill="#00FF2B"/>
<path d="M44.1223 58.9933C44.1906 59.0173 44.2785 59.0093 44.3078 58.9853C44.3469 58.9613 44.2883 58.9372 44.1809 58.9452C44.0734 58.9452 44.0441 58.9693 44.1223 58.9933Z" fill="#00FF2B"/>
<path d="M45.4596 59.019C45.3913 59.1187 45.4792 59.1187 45.7526 59.019C45.9381 58.9526 45.9381 58.9443 45.7331 58.9443C45.6159 58.936 45.4889 58.9692 45.4596 59.019Z" fill="#00FF2B"/>
<path d="M46.2225 58.9938C46.1639 59.0353 46.4471 59.0685 46.8573 59.0851C47.2674 59.1017 47.5799 59.0934 47.5604 59.0685C47.4628 59.0021 46.3397 58.9357 46.2225 58.9938Z" fill="#00FF2B"/>
<path d="M52.7626 59.0778C52.8505 59.0938 52.9872 59.0938 53.0556 59.0778C53.1141 59.0538 53.0458 59.0378 52.8798 59.0378C52.7235 59.0378 52.6649 59.0538 52.7626 59.0778Z" fill="#00FF2B"/>
<path d="M51.7568 59.1763C51.7568 59.2178 51.7275 59.3257 51.6884 59.4087C51.6298 59.5498 51.6298 59.5498 51.7861 59.417C51.9716 59.2676 52.0009 59.1016 51.8544 59.1016C51.8056 59.1016 51.7568 59.1348 51.7568 59.1763Z" fill="#00FF2B"/>
<path d="M52.0605 59.2349C52.0605 59.3263 52.0897 59.3512 52.119 59.2847C52.1482 59.2266 52.1385 59.1519 52.1092 59.127C52.08 59.0938 52.0508 59.1436 52.0605 59.2349Z" fill="#00FF2B"/>
<path d="M52.3044 59.3672C52.3141 59.5166 52.3337 59.666 52.3337 59.6992C52.3434 59.7407 52.3825 59.7656 52.4313 59.7656C52.4801 59.7656 52.5094 59.6992 52.4899 59.6162C52.4704 59.5415 52.4508 59.3921 52.4508 59.2842C52.4411 59.1846 52.402 59.1016 52.3532 59.1016C52.3044 59.1016 52.2848 59.2261 52.3044 59.3672Z" fill="#00FF2B"/>
<path d="M41.7981 59.2666C41.72 59.3081 41.7004 59.3496 41.7493 59.3496C41.8079 59.3496 41.9153 59.3081 41.9934 59.2666C42.0715 59.2251 42.1008 59.1836 42.0422 59.1836C41.9934 59.1836 41.8762 59.2251 41.7981 59.2666Z" fill="#00FF2B"/>
<path d="M42.8421 59.7741C42.9104 59.8322 42.9885 59.8571 43.0178 59.8322C43.0471 59.8073 42.9983 59.7575 42.9006 59.7326C42.7639 59.6828 42.7542 59.6911 42.8421 59.7741Z" fill="#00FF2B"/>
<path d="M51.5254 59.865C51.3105 60.0227 51.2715 60.0891 51.3691 60.1389C51.457 60.1804 51.4766 60.1721 51.4277 60.114C51.3887 60.0559 51.3984 60.0144 51.4473 60.0144C51.4961 60.0144 51.5449 60.1057 51.5449 60.2219C51.5449 60.3381 51.4961 60.4294 51.4473 60.4294C51.3984 60.4294 51.3789 60.3962 51.4082 60.3547C51.4961 60.2385 51.2422 60.197 51.0078 60.2883C50.6465 60.4294 50.7539 60.5124 51.2812 60.5124C51.5449 60.5124 51.75 60.5456 51.7207 60.5871C51.6914 60.6286 51.457 60.6452 51.2031 60.6286L50.7344 60.6037L51.1934 60.6701C51.5156 60.7282 51.75 60.7116 52.0234 60.6369C52.2773 60.5539 52.3262 60.5207 52.1797 60.5124C51.8086 60.5124 51.6426 60.4211 51.7598 60.2966C51.8184 60.2385 51.8574 60.0725 51.8379 59.9231L51.8086 59.6491L51.5254 59.865ZM51.2715 60.3464C51.2715 60.3879 51.1934 60.4294 51.1055 60.4294C50.959 60.4294 50.9492 60.4128 51.0762 60.3464C51.2617 60.2468 51.2715 60.2468 51.2715 60.3464Z" fill="#00FF2B"/>
<path d="M44.4418 60.0072C44.3343 60.0653 44.3539 60.0902 44.5199 60.14C44.6468 60.1732 44.764 60.1732 44.7933 60.1483C44.8324 60.1234 44.7738 60.0985 44.6664 60.0902C44.4906 60.0902 44.4906 60.0819 44.6761 60.0155C44.8031 59.9656 44.8226 59.9407 44.725 59.9407C44.6468 59.9407 44.5199 59.9656 44.4418 60.0072Z" fill="#00FF2B"/>
<path d="M45.7723 60.1558C45.6356 60.2637 45.7137 60.4297 45.8993 60.4297C46.0262 60.4297 46.0946 60.3716 46.0946 60.2637C46.0946 60.106 45.8993 60.0396 45.7723 60.1558Z" fill="#00FF2B"/>
<path d="M55.0293 60.1798C55 60.2296 55.039 60.2379 55.1171 60.213C55.2929 60.1549 55.3222 60.0968 55.1855 60.0968C55.1269 60.0968 55.0586 60.13 55.0293 60.1798Z" fill="#00FF2B"/>
<path d="M46.8445 60.3542C46.8054 60.4787 46.8542 60.5452 47.0495 60.6033C47.3816 60.7112 47.5964 60.6697 47.6355 60.4871C47.6648 60.3791 47.5964 60.3459 47.2937 60.3376L46.9226 60.321L47.3132 60.2629L47.7038 60.2048L47.3035 60.1882C46.9714 60.1799 46.8835 60.2131 46.8445 60.3542ZM47.489 60.5701C47.4206 60.5867 47.3035 60.5867 47.2449 60.5701C47.1765 60.5452 47.2253 60.5286 47.362 60.5286C47.4988 60.5286 47.5476 60.5452 47.489 60.5701Z" fill="#00FF2B"/>
<path d="M48.3213 60.738C48.4385 60.754 48.6338 60.754 48.7608 60.738C48.878 60.722 48.7803 60.7059 48.5362 60.7059C48.2921 60.7059 48.1944 60.722 48.3213 60.738Z" fill="#00FF2B"/>
<path d="M55.7246 27.7998C55.7734 27.8413 55.9199 27.8994 56.0566 27.9243L56.3008 27.9824L56.0566 27.8579C55.7832 27.7168 55.5684 27.6836 55.7246 27.7998Z" fill="#00FF2B"/>
<path d="M49.4253 39.6026C48.6245 39.8766 48.2046 40.441 48.2632 41.1798C48.312 41.8023 48.6538 42.2506 49.2691 42.4996C49.689 42.6739 49.7671 42.6822 50.2554 42.5909C51.3296 42.3834 52.0327 41.5118 51.7691 40.6983C51.4956 39.8434 50.3335 39.2955 49.4253 39.6026ZM50.4605 40.69C50.8218 40.9806 50.7437 41.3458 50.2652 41.5533C49.9917 41.6778 49.9527 41.6778 49.7183 41.5201C49.2202 41.2047 49.4058 40.5074 49.982 40.5074C50.1187 40.5074 50.3335 40.5904 50.4605 40.69Z" fill="#00FF2B"/>
<path d="M52.1973 41.0887C52.0996 41.18 52.0703 41.2547 52.1289 41.2547C52.1973 41.2547 52.2461 41.2962 52.2461 41.346C52.2461 41.3875 52.207 41.4041 52.1484 41.3792C52.0996 41.3543 52.0508 41.3626 52.0508 41.4041C52.0508 41.4539 52.1191 41.512 52.207 41.5369C52.3438 41.5784 52.3633 41.5452 52.3145 41.3543C52.2852 41.2215 52.3047 41.0721 52.373 41.014C52.4316 40.9641 52.4609 40.9226 52.4316 40.9226C52.4023 40.9226 52.2949 40.9974 52.1973 41.0887Z" fill="#00FF2B"/>
<path d="M46.9436 41.6784C47.012 41.7365 47.0901 41.7614 47.1194 41.7365C47.1487 41.7116 47.0999 41.6618 47.0022 41.6369C46.8655 41.5871 46.8557 41.5954 46.9436 41.6784Z" fill="#00FF2B"/>
<path d="M52.031 41.6953C52.0993 41.7617 52.1286 41.8281 52.0993 41.853C52.07 41.8696 52.1091 41.8945 52.1872 41.8945C52.363 41.8945 52.2849 41.6953 52.0798 41.6372C51.9626 41.5957 51.9528 41.604 52.031 41.6953Z" fill="#00FF2B"/>
<path d="M52.6464 41.7193C52.6464 41.8106 52.6757 41.8355 52.7049 41.7691C52.7342 41.711 52.7244 41.6363 52.6952 41.6114C52.6659 41.5782 52.6367 41.628 52.6464 41.7193Z" fill="#00FF2B"/>
<path d="M51.8652 41.8853C51.8652 41.9766 51.8944 42.0015 51.9237 41.9351C51.9529 41.877 51.9432 41.8023 51.9139 41.7774C51.8847 41.7442 51.8554 41.794 51.8652 41.8853Z" fill="#00FF2B"/>
<path d="M52.1582 42.1257C52.1484 42.2668 52.1289 42.2751 52.041 42.1672C51.9629 42.0759 51.9531 42.0925 52.0117 42.2502C52.0703 42.4328 52.0605 42.4411 51.9141 42.3415C51.8262 42.2834 51.7578 42.2668 51.7578 42.3C51.7578 42.3415 51.8457 42.4245 51.9531 42.4826C52.0605 42.5407 52.1387 42.5573 52.1289 42.5241C52.1289 42.4826 52.1484 42.3913 52.1875 42.3166C52.2266 42.2336 52.2461 42.1257 52.2168 42.0676C52.1875 42.0094 52.1582 42.0343 52.1582 42.1257Z" fill="#00FF2B"/>
<path d="M51.4928 42.2676C51.2584 42.5249 50.4577 42.832 50.0475 42.832C49.8717 42.832 49.6862 42.8652 49.6569 42.915C49.6276 42.9565 49.6764 42.998 49.7741 42.998C49.9206 42.998 49.9303 43.0146 49.8034 43.0811C49.7155 43.1309 49.7057 43.1641 49.7741 43.1641C49.8327 43.1641 49.9596 43.106 50.0377 43.0313C50.1256 42.9648 50.2428 42.9316 50.3014 42.9565C50.3502 42.9897 50.4772 42.9565 50.5651 42.8901C50.653 42.8237 50.8971 42.7241 51.1022 42.6577C51.2975 42.5996 51.4635 42.5 51.4635 42.4419C51.4635 42.3838 51.5026 42.334 51.5514 42.334C51.6002 42.334 51.6588 42.2759 51.6979 42.2095C51.776 42.0352 51.6979 42.0518 51.4928 42.2676Z" fill="#00FF2B"/>
<path d="M48.3027 42.2339C48.2734 42.2754 48.3125 42.3086 48.3906 42.3086C48.4687 42.3086 48.5078 42.2754 48.4785 42.2339C48.4492 42.2007 48.4101 42.1675 48.3906 42.1675C48.3711 42.1675 48.332 42.2007 48.3027 42.2339Z" fill="#00FF2B"/>
<path d="M48.4763 42.5157C48.4958 42.5738 48.5837 42.6153 48.6814 42.607C48.7791 42.5987 48.9255 42.6486 48.9939 42.715C49.072 42.7814 49.1794 42.8063 49.238 42.7814C49.3064 42.7482 49.3162 42.798 49.2673 42.9225C49.199 43.1051 49.199 43.1051 49.365 42.9723C49.4626 42.8893 49.5212 42.8146 49.5017 42.798C49.3259 42.6901 48.6326 42.4327 48.6814 42.4991C48.7107 42.5406 48.7009 42.5821 48.6423 42.5821C48.5935 42.5821 48.5251 42.5406 48.5056 42.4991C48.4763 42.4493 48.4666 42.4576 48.4763 42.5157Z" fill="#00FF2B"/>
<path d="M52.297 42.4997C52.3263 42.5495 52.4141 42.5827 52.4923 42.5827C52.5606 42.5827 52.6388 42.6159 52.6583 42.6574C52.6778 42.6989 52.7462 42.674 52.8243 42.6076C52.9415 42.4914 52.9415 42.4831 52.8243 42.5163C52.7462 42.5412 52.5899 42.5246 52.463 42.4914C52.3165 42.4416 52.2579 42.4499 52.297 42.4997Z" fill="#00FF2B"/>
<path d="M53.0257 42.5673C53.0257 42.6088 52.9476 42.725 52.8401 42.8246C52.6937 42.974 52.6448 42.9823 52.596 42.8744C52.5179 42.6835 52.3714 42.725 52.3226 42.9574C52.2933 43.0653 52.3128 43.14 52.3519 43.1151C52.469 43.057 52.4593 43.14 52.3323 43.3558C52.2151 43.5385 52.2151 43.5385 52.43 43.3807C52.5765 43.2728 52.6058 43.1898 52.5374 43.1317C52.3909 43.0072 52.4202 42.8827 52.5765 42.9906C52.6839 43.0653 52.7522 43.0404 52.9183 42.8661C53.1136 42.6586 53.1819 42.5009 53.0745 42.5009C53.0452 42.5009 53.0257 42.5341 53.0257 42.5673Z" fill="#00FF2B"/>
<path d="M47.1102 42.7579C47.0809 42.8077 47.0907 42.8824 47.1395 42.9239C47.1884 42.9654 47.2274 42.9322 47.2274 42.8326C47.2274 42.6417 47.2079 42.6334 47.1102 42.7579Z" fill="#00FF2B"/>
<path d="M51.2779 42.7403C51.1998 42.7818 51.19 42.8316 51.2486 42.8648C51.2974 42.8897 51.3658 42.8565 51.4049 42.7901C51.4634 42.649 51.4634 42.6407 51.2779 42.7403Z" fill="#00FF2B"/>
<path d="M52.002 42.915C52.0313 42.9565 52.0802 42.998 52.1095 42.998C52.129 42.998 52.1485 42.9565 52.1485 42.915C52.1485 42.8652 52.0997 42.832 52.0411 42.832C51.9923 42.832 51.9727 42.8652 52.002 42.915Z" fill="#00FF2B"/>
<path d="M50.6836 43.0061C50.6836 43.114 50.8203 43.1389 51.0742 43.0808C51.3086 43.031 51.3086 43.0227 51.0059 42.9895C50.8301 42.9646 50.6836 42.9729 50.6836 43.0061Z" fill="#00FF2B"/>
<path d="M47.5289 43.1397C47.3922 43.2476 47.4703 43.314 47.8023 43.3638C48.1246 43.4219 48.2906 43.5796 48.0269 43.5796C47.9488 43.5879 47.9781 43.6377 48.0855 43.7041C48.1832 43.7705 48.3004 43.8037 48.3492 43.7788C48.4859 43.7124 48.398 43.4136 48.2418 43.4136C48.1148 43.4136 48.1148 43.4053 48.2418 43.3306C48.3492 43.2642 48.3101 43.2559 48.0953 43.2974C47.8609 43.3306 47.8316 43.3223 47.9488 43.2476C48.0758 43.1646 48.066 43.1563 47.9097 43.1978C47.8023 43.231 47.6949 43.2144 47.6558 43.1646C47.6265 43.1148 47.568 43.1065 47.5289 43.1397ZM48.3394 43.6626C48.3394 43.7041 48.3199 43.7456 48.3004 43.7456C48.2711 43.7456 48.2222 43.7041 48.193 43.6626C48.1637 43.6128 48.1832 43.5796 48.232 43.5796C48.2906 43.5796 48.3394 43.6128 48.3394 43.6626Z" fill="#00FF2B"/>
<path d="M51.6589 43.5369C51.5515 43.6448 51.5612 43.6531 51.6979 43.6116C51.7858 43.5867 51.8542 43.5286 51.8542 43.4871C51.8542 43.3792 51.7956 43.3958 51.6589 43.5369Z" fill="#00FF2B"/>
<path d="M50.2441 43.5796C49.9805 43.6128 49.6387 43.6211 49.4922 43.5962C49.2969 43.5713 49.2188 43.5962 49.2188 43.6792C49.2188 43.8286 49.8926 43.9282 50.4297 43.8535C50.6836 43.8203 50.7812 43.7622 50.7812 43.6543C50.7812 43.563 50.7715 43.5049 50.7617 43.5049C50.7422 43.5132 50.5176 43.5464 50.2441 43.5796Z" fill="#00FF2B"/>
<path d="M48.878 43.9108C49.3565 44.0436 50.2257 44.0851 50.5382 44.0021C50.7823 43.9357 50.7432 43.9274 50.2452 43.944C49.9229 43.944 49.4151 43.9274 49.1221 43.8942C48.7315 43.8527 48.6632 43.861 48.878 43.9108Z" fill="#00FF2B"/>
<path d="M62.6947 33.8247C62.6264 33.8994 62.6166 33.9492 62.6752 33.9492C62.724 33.9492 62.7924 33.8911 62.8314 33.8247C62.8607 33.7583 62.8705 33.7002 62.851 33.7002C62.8314 33.7002 62.7631 33.7583 62.6947 33.8247Z" fill="#00FF2B"/>
<path d="M53.2812 41.2966C53.2519 41.3713 53.2226 41.4958 53.2324 41.5705C53.2324 41.6452 53.2812 41.6037 53.33 41.4709C53.4179 41.2053 53.3886 41.0725 53.2812 41.2966Z" fill="#00FF2B"/>
<path d="M64.852 46.5431C64.852 46.6344 64.8813 46.651 64.9106 46.5846C64.9302 46.5348 65.0083 46.5099 65.0571 46.5348C65.1255 46.568 65.1352 46.5514 65.0962 46.5016C64.9887 46.3522 64.8423 46.3854 64.852 46.5431Z" fill="#00FF2B"/>
<path d="M62.2383 50.5928C62.2383 50.6592 62.2773 50.6924 62.3262 50.6675C62.375 50.6426 62.3848 50.5845 62.3555 50.543C62.2676 50.4351 62.2383 50.4517 62.2383 50.5928Z" fill="#00FF2B"/>
<path d="M63.7207 52.377C63.6914 52.4268 63.7304 52.4351 63.8086 52.4102C63.9843 52.3521 64.0136 52.294 63.8769 52.294C63.8183 52.294 63.75 52.3272 63.7207 52.377Z" fill="#00FF2B"/>
<path d="M37.4125 53.3235C37.6957 53.5476 38.7992 54.2117 38.8285 54.1785C38.8773 54.137 37.5492 53.2903 37.432 53.2903C37.4027 53.2903 37.393 53.3069 37.4125 53.3235Z" fill="#00FF2B"/>
</svg>
