<svg width="50" height="50" viewBox="0 0 50 50" fill="none" xmlns="http://www.w3.org/2000/svg">
<rect x="0.5" y="0.5" width="49" height="49" rx="24.5" stroke="#00FF1E"/>
<path d="M13 38C12.175 38 11.469 37.6943 10.882 37.0828C10.295 36.4714 10.001 35.7354 10 34.875V16.125C10 15.2656 10.294 14.5302 10.882 13.9187C11.47 13.3073 12.176 13.001 13 13H37C37.825 13 38.5315 13.3062 39.1195 13.9187C39.7075 14.5312 40.001 15.2667 40 16.125V34.875C40 35.7344 39.7065 36.4703 39.1195 37.0828C38.5325 37.6953 37.826 38.001 37 38H13ZM25 27.0625L13 19.25V34.875H37V19.25L25 27.0625ZM25 23.9375L37 16.125H13L25 23.9375ZM13 19.25V16.125V34.875V19.25Z" fill="#00FF1E"/>
</svg>
