<svg width="20" height="20" viewBox="0 0 20 20" fill="none" xmlns="http://www.w3.org/2000/svg">
<path d="M9.99932 1.66602C8.23121 1.66602 6.53552 2.36839 5.28528 3.61864C4.03503 4.86888 3.33265 6.56457 3.33265 8.33268V10.636L1.75432 13.7927C1.69066 13.9197 1.66054 14.0609 1.66683 14.2029C1.67313 14.3449 1.71562 14.4829 1.79027 14.6038C1.86493 14.7247 1.96926 14.8245 2.09337 14.8938C2.21747 14.963 2.35721 14.9993 2.49932 14.9993H17.4993C17.6414 14.9993 17.7812 14.963 17.9053 14.8938C18.0294 14.8245 18.1337 14.7247 18.2084 14.6038C18.283 14.4829 18.3255 14.3449 18.3318 14.2029C18.3381 14.0609 18.308 13.9197 18.2443 13.7927L16.666 10.636V8.33268C16.666 6.56457 15.9636 4.86888 14.7134 3.61864C13.4631 2.36839 11.7674 1.66602 9.99932 1.66602ZM9.99932 19.166C9.26019 19.1662 8.54196 18.9207 7.95757 18.4682C7.37318 18.0156 6.95577 17.3817 6.77099 16.666H13.2277C13.0429 17.3817 12.6255 18.0156 12.0411 18.4682C11.4567 18.9207 10.7385 19.1662 9.99932 19.166Z" fill="#00740E"/>
</svg>
