<svg width="50" height="50" viewBox="0 0 50 50" fill="none" xmlns="http://www.w3.org/2000/svg">
<rect x="0.5" y="0.5" width="49" height="49" rx="24.5" stroke="#00FF1E"/>
<path d="M16.0333 23.8194C18.4333 27.75 22.3 30.9583 27.0167 32.9722L30.6833 29.9167C31.1333 29.5417 31.8 29.4167 32.3833 29.5833C34.25 30.0972 36.2667 30.375 38.3333 30.375C39.25 30.375 40 31 40 31.7639V36.6111C40 37.375 39.25 38 38.3333 38C22.6833 38 10 27.4306 10 14.3889C10 13.625 10.75 13 11.6667 13H17.5C18.4167 13 19.1667 13.625 19.1667 14.3889C19.1667 16.125 19.5 17.7917 20.1167 19.3472C20.3 19.8333 20.1667 20.375 19.7 20.7639L16.0333 23.8194Z" fill="#00FF1E"/>
</svg>
