<svg width="15" height="15" viewBox="0 0 15 15" fill="none" xmlns="http://www.w3.org/2000/svg">
<path d="M7.5 4.375C8.1123 4.37496 8.71112 4.55481 9.22208 4.89219C9.73304 5.22957 10.1336 5.70962 10.3741 6.27273C10.6146 6.83583 10.6843 7.45717 10.5747 8.05957C10.465 8.66197 10.1808 9.21889 9.75739 9.66116C9.33394 10.1034 8.7899 10.4116 8.19283 10.5473C7.59576 10.683 6.97198 10.6403 6.39896 10.4245C5.82594 10.2088 5.32893 9.82942 4.96966 9.3336C4.61039 8.83778 4.4047 8.24735 4.37813 7.63562L4.375 7.5L4.37813 7.36438C4.41307 6.55984 4.75725 5.79986 5.33889 5.24291C5.92052 4.68596 6.69471 4.37505 7.5 4.375Z" fill="#00C017"/>
</svg>
