<svg width="50" height="50" viewBox="0 0 50 50" fill="none" xmlns="http://www.w3.org/2000/svg">
<g clip-path="url(#clip0_51_1809)">
<path d="M25.0007 8.33398C27.2108 8.33398 29.3304 9.21196 30.8932 10.7748C32.456 12.3376 33.334 14.4572 33.334 16.6673C33.334 18.8775 32.456 20.9971 30.8932 22.5599C29.3304 24.1227 27.2108 25.0007 25.0007 25.0007C22.7905 25.0007 20.6709 24.1227 19.1081 22.5599C17.5453 20.9971 16.6673 18.8775 16.6673 16.6673C16.6673 14.4572 17.5453 12.3376 19.1081 10.7748C20.6709 9.21196 22.7905 8.33398 25.0007 8.33398ZM25.0007 29.1673C34.209 29.1673 41.6673 32.8965 41.6673 37.5007V41.6673H8.33398V37.5007C8.33398 32.8965 15.7923 29.1673 25.0007 29.1673Z" fill="#00740E"/>
</g>
<rect x="0.5" y="0.5" width="49" height="49" rx="9.5" stroke="#00740E"/>
<defs>
<clipPath id="clip0_51_1809">
<rect width="50" height="50" rx="10" fill="white"/>
</clipPath>
</defs>
</svg>
